<svg id="SvgjsSvg1008" xmlns="http://www.w3.org/2000/svg" version="1.1" xmlns:xlink="http://www.w3.org/1999/xlink" xmlns:svgjs="http://svgjs.com/svgjs" width="9" height="20"><defs id="SvgjsDefs1009"></defs><path id="SvgjsPath1010" d="M974.84 412.62C974.64 412.43 974.33 412.43 974.13 412.62L970.99 415.77L970.99 398.5C970.99 398.22 970.77 398 970.49 398C970.22 398 969.99 398.22 969.99 398.5L969.99 415.77L966.85 412.62C966.66 412.43 966.34 412.43 966.15 412.62C965.9499999999999 412.82 965.9499999999999 413.13 966.15 413.33L970.14 417.32C970.24 417.42 970.37 417.46999999999997 970.49 417.46999999999997C970.62 417.46999999999997 970.75 417.41999999999996 970.85 417.32L974.84 413.33C975.0300000000001 413.13 975.0300000000001 412.82 974.84 412.62Z "  fill-opacity="1" transform="matrix(1,0,0,1,-966,-398)"></path></svg>