<svg id="SvgjsSvg1008" xmlns="http://www.w3.org/2000/svg" version="1.1" xmlns:xlink="http://www.w3.org/1999/xlink" xmlns:svgjs="http://svgjs.com/svgjs" width="20" height="16"><defs id="SvgjsDefs1009"></defs><path id="SvgjsPath1010" d="M1058 192C1058.28 192 1058.52 192.1 1058.71 192.29L1065.71 199.29C1065.9 199.48 1066 199.72 1066 200C1066 200.28 1065.9 200.52 1065.71 200.71L1058.71 207.71C1058.52 207.9 1058.28 208 1058 208C1057.71 208 1057.48 207.9 1057.29 207.71C1057.1 207.52 1057 207.29000000000002 1057 207C1057 206.72 1057.1 206.48 1057.29 206.29L1062.59 201L1047 201C1046.72 201 1046.49 200.9 1046.29 200.71C1046.1 200.51000000000002 1046 200.28 1046 200C1046 199.72 1046.1 199.49 1046.29 199.29C1046.49 199.1 1046.72 199 1047 199L1062.59 199L1057.29 193.71C1057.1 193.52 1057 193.28 1057 193C1057 192.71 1057.1 192.48 1057.29 192.29C1057.48 192.1 1057.71 192 1058 192Z " fill-opacity="1" transform="matrix(1,0,0,1,-1046,-192)"></path></svg>