<?xml version="1.0" encoding="utf-8"?>
<!-- Generator: Avocode 2.6.0 - http://avocode.com -->
<svg height="14" width="14" xmlns:xlink="http://www.w3.org/1999/xlink" xmlns="http://www.w3.org/2000/svg" viewBox="0 0 14 14">
    <path fill-rule="evenodd" d="M 10.22 11.2 C 10.98 11.2 11.6 11.86 11.6 12.62 C 11.6 13.37 10.98 14 10.22 14 C 9.46 14 8.8 13.37 8.8 12.62 C 8.8 11.86 9.46 11.2 10.22 11.2 L 10.22 11.2 Z M -1 0 L 1.3 0 L 1.95 1.38 L 12.31 1.38 C 12.7 1.38 13 1.71 13 2.1 C 13 2.23 12.97 2.33 12.9 2.43 L 10.41 6.96 C 10.18 7.39 9.72 7.69 9.2 7.69 L 3.98 7.69 L 3.36 8.84 L 3.33 8.93 C 3.33 9.03 3.39 9.1 3.49 9.1 L 11.59 9.1 L 11.59 10.51 L 3.2 10.51 C 2.44 10.51 1.82 9.85 1.82 9.1 C 1.82 8.87 1.89 8.64 1.98 8.44 L 2.93 6.7 L 0.41 1.38 L -1 1.38 L -1 0 L -1 0 Z M 3.2 11.2 C 3.96 11.2 4.62 11.86 4.62 12.62 C 4.62 13.37 3.96 14 3.2 14 C 2.45 14 1.82 13.37 1.82 12.62 C 1.82 11.86 2.45 11.2 3.2 11.2 L 3.2 11.2 Z M 3.2 11.2" />
</svg>