<svg id="SvgjsSvg1020" xmlns="http://www.w3.org/2000/svg" version="1.1" xmlns:xlink="http://www.w3.org/1999/xlink" xmlns:svgjs="http://svgjs.com/svgjs" width="12" height="12"><defs id="SvgjsDefs1021"><clipPath id="SvgjsClipPath1024"><path id="SvgjsPath1023" d="M634 448C634 444.68629 636.68629 442 640 442C643.31371 442 646 444.68629 646 448C646 451.31371 643.31371 454 640 454C636.68629 454 634 451.31371 634 448Z " fill="#ffffff"></path></clipPath></defs><path id="SvgjsPath1022" d="M634 448C634 444.68629 636.68629 442 640 442C643.31371 442 646 444.68629 646 448C646 451.31371 643.31371 454 640 454C636.68629 454 634 451.31371 634 448Z " fill-opacity="0" fill="#ffffff" stroke-dasharray="0" stroke-linejoin="miter" stroke-linecap="butt" stroke-opacity="1" stroke-miterlimit="50" stroke-width="1" clip-path="url(&quot;#SvgjsClipPath1024&quot;)" transform="matrix(1,0,0,1,-634,-442)"></path><path id="SvgjsPath1025" d="M637 448C637 446.34315 638.34315 445 640 445C641.65685 445 643 446.34315 643 448C643 449.65685 641.65685 451 640 451C638.34315 451 637 449.65685 637 448Z "  fill-opacity="1" transform="matrix(1,0,0,1,-634,-442)"></path></svg>