<svg id="SvgjsSvg1000" xmlns="http://www.w3.org/2000/svg" version="1.1" xmlns:xlink="http://www.w3.org/1999/xlink" xmlns:svgjs="http://svgjs.com/svgjs" width="14" height="16"><defs id="SvgjsDefs1001"></defs><path id="SvgjsPath1007" d="M160.25 409C160.66 409 161 408.66 161 408.25L161 405.75C161 405.34 160.66 405 160.25 405L160 405L160 402L158 402L158 405L157.75 405C157.34 405 157 405.34 157 405.75L157 408.25C157 408.66 157.34 409 157.75 409L158 409L158 418L160 418L160 409ZM156 414.25L156 411.75C156 411.34 155.66 411 155.25 411L155 411L155 402L153 402L153 411L152.75 411C152.34 411 152 411.34 152 411.75L152 414.25C152 414.66 152.34 415 152.75 415L153 415L153 418L155 418L155 415L155.25 415C155.66 415 156 414.66 156 414.25ZM151 408.25L151 405.75C151 405.34 150.66 405 150.25 405L150 405L150 402L148 402L148 405L147.75 405C147.34 405 147 405.34 147 405.75L147 408.25C147 408.66 147.34 409 147.75 409L148 409L148 418L150 418L150 409L150.25 409C150.66 409 151 408.66 151 408.25ZM160 406L160 408L158 408L158 406ZM155 412L155 414L153 414L153 412ZM150 406L150 408L148 408L148 406Z "  fill-opacity="1" transform="matrix(1,0,0,1,-147,-402)"></path></svg>