<?xml version="1.0" encoding="utf-8"?>
<!-- Generator: Avocode 2.6.0 - http://avocode.com -->
<svg height="14" width="12" xmlns:xlink="http://www.w3.org/1999/xlink" xmlns="http://www.w3.org/2000/svg" viewBox="0 0 12 14">
    <path fill-rule="evenodd" d="M 7.58 2.33 L 9.92 2.33 C 10.4 2.33 10.81 2.5 11.15 2.85 C 11.5 3.19 11.67 3.6 11.67 4.08 L 11.67 12.25 C 11.67 12.73 11.5 13.15 11.15 13.49 C 10.81 13.83 10.4 14 9.92 14 L 1.75 14 C 1.27 14 0.85 13.83 0.51 13.49 C 0.17 13.15 0 12.73 0 12.25 L 0 4.08 C 0 3.6 0.17 3.19 0.51 2.85 C 0.85 2.5 1.27 2.33 1.75 2.33 L 4.08 2.33 L 4.08 3.5 L 1.75 3.5 C 1.59 3.5 1.45 3.56 1.34 3.67 C 1.22 3.78 1.17 3.92 1.17 4.08 L 1.17 12.25 C 1.17 12.41 1.22 12.55 1.34 12.66 C 1.45 12.78 1.59 12.83 1.75 12.83 L 9.92 12.83 C 10.08 12.83 10.22 12.78 10.33 12.66 C 10.44 12.55 10.5 12.41 10.5 12.25 L 10.5 4.08 C 10.5 3.92 10.44 3.78 10.33 3.67 C 10.22 3.56 10.08 3.5 9.92 3.5 L 7.58 3.5 L 7.58 2.33 L 7.58 2.33 Z M 5.83 0 C 5.99 0 6.13 0.06 6.25 0.17 C 6.36 0.28 6.42 0.42 6.42 0.58 L 6.42 7.93 L 7.75 6.59 C 7.86 6.47 8 6.42 8.17 6.42 C 8.33 6.42 8.47 6.47 8.58 6.58 C 8.69 6.69 8.75 6.83 8.75 7 C 8.75 7.16 8.69 7.3 8.58 7.41 L 6.25 9.75 C 6.14 9.86 6 9.92 5.83 9.92 C 5.67 9.92 5.53 9.86 5.42 9.75 L 3.09 7.41 C 2.97 7.3 2.92 7.16 2.92 7 C 2.92 6.84 2.97 6.7 3.09 6.59 C 3.2 6.47 3.34 6.42 3.5 6.42 C 3.66 6.42 3.8 6.47 3.91 6.59 L 5.25 7.93 L 5.25 0.58 C 5.25 0.42 5.31 0.28 5.42 0.17 C 5.53 0.06 5.67 0 5.83 0 L 5.83 0 Z M 5.83 0" />
</svg>