<?xml version="1.0" encoding="utf-8"?>
<!-- Generator: Avocode 2.6.0 - http://avocode.com -->
<svg height="18" width="16" xmlns:xlink="http://www.w3.org/1999/xlink" xmlns="http://www.w3.org/2000/svg" viewBox="0 0 16 18">
    <path fill-rule="evenodd" d="M 15.25 4.03 C 14.85 3.49 14.3 2.87 13.69 2.27 C 13.08 1.68 12.45 1.13 11.91 0.74 C 10.99 0.08 10.54 0 10.29 0 L 1.43 0 C 0.64 0 0 0.63 0 1.41 L 0 16.59 C 0 17.37 0.64 18 1.43 18 L 14.57 18 C 15.36 18 16 17.37 16 16.59 L 16 5.63 C 16 5.37 15.92 4.93 15.25 4.03 L 15.25 4.03 L 15.25 4.03 Z M 12.88 3.07 C 13.43 3.61 13.86 4.1 14.18 4.5 L 11.43 4.5 L 11.43 1.79 C 11.84 2.11 12.33 2.53 12.88 3.07 L 12.88 3.07 L 12.88 3.07 Z M 14.86 16.59 C 14.86 16.75 14.73 16.88 14.57 16.88 L 1.43 16.88 C 1.27 16.88 1.14 16.75 1.14 16.59 L 1.14 1.41 C 1.14 1.25 1.27 1.13 1.43 1.13 C 1.43 1.13 10.28 1.12 10.29 1.13 L 10.29 5.06 C 10.29 5.37 10.54 5.63 10.86 5.63 L 14.86 5.63 L 14.86 16.59 L 14.86 16.59 Z M 14.86 16.59" />
</svg>