<svg xmlns="http://www.w3.org/2000/svg" height="15" width="16" viewBox="0 0 16 15"><path fill-rule="evenodd" d="M0.81 3.74C0.81 5.01 1.24 5.93 2.07 6.47 2.76 6.91 3.56 6.98 3.97 6.98 4.07 6.98 4.15 6.98 4.21 6.97 4.21 6.97 4.08 7.83 4.71 8.67L4.68 8.67C3.58 8.67 0 8.9 0 11.85 0 14.85 3.29 15 3.95 15 4 15 4.03 15 4.03 15 4.04 15 4.09 15 4.17 15 4.59 15 5.69 14.95 6.7 14.45 8.02 13.81 8.69 12.7 8.69 11.14 8.69 9.64 7.67 8.74 6.93 8.09 6.47 7.69 6.08 7.34 6.08 7.01 6.08 6.67 6.37 6.41 6.73 6.09 7.32 5.56 7.87 4.81 7.87 3.4 7.87 2.16 7.71 1.33 6.72 0.8 6.82 0.74 7.19 0.71 7.37 0.68 7.91 0.61 8.69 0.52 8.69 0.08L8.69 0 4.77 0C4.74 0 0.81 0.15 0.81 3.74L0.81 3.74ZM7.14 11.42C7.21 12.62 6.19 13.51 4.65 13.62 3.09 13.73 1.8 13.03 1.72 11.83 1.69 11.25 1.94 10.69 2.43 10.24 2.94 9.79 3.63 9.51 4.38 9.45 4.47 9.45 4.55 9.44 4.64 9.44 6.09 9.44 7.07 10.29 7.14 11.42L7.14 11.42ZM6.11 2.92C6.5 4.27 5.92 5.69 4.99 5.95 4.89 5.98 4.78 5.99 4.67 5.99 3.82 5.99 2.98 5.13 2.67 3.95 2.49 3.29 2.51 2.71 2.71 2.15 2.9 1.6 3.25 1.23 3.7 1.11 3.8 1.08 3.92 1.06 4.03 1.06 5.05 1.06 5.71 1.49 6.11 2.92L6.11 2.92ZM12.72 5.87L12.72 3.31 11.1 3.31 11.1 5.87 8.54 5.87 8.54 7.48 11.1 7.48 11.1 10.04 12.72 10.04 12.72 7.48 15.28 7.48 15.28 5.87 12.72 5.87 12.72 5.87ZM12.72 5.87"/></svg>