<?xml version="1.0" encoding="utf-8"?>
<!-- Generator: Adobe Illustrator 15.0.0, SVG Export Plug-In . SVG Version: 6.00 Build 0)  -->
<!DOCTYPE svg PUBLIC "-//W3C//DTD SVG 1.1//EN" "http://www.w3.org/Graphics/SVG/1.1/DTD/svg11.dtd">
<svg version="1.1" id="Calque_1" xmlns="http://www.w3.org/2000/svg" xmlns:xlink="http://www.w3.org/1999/xlink" x="0px" y="0px"
	 width="111px" height="128px" viewBox="0 0 111 128" enable-background="new 0 0 111 128" xml:space="preserve">
<path fill="none" stroke="#FFFFFF" stroke-width="2" stroke-miterlimit="10" d="M63.747,31.623l13.052,9.018l1.293,1.937
	c0.484-0.56,1.221-1.684,1.221-1.684c-0.095-0.494-1.312-6.637-1.684-8.224c-3.525-15.056-6.689-15.056-21.897-15.056
	c-15.209,0-18.375,0-21.9,15.056c-0.468,2.001-1.593,7.751-1.684,8.224c0,0,0.736,1.124,1.221,1.682l1.379-2.222l0.697-0.057
	c0.154-0.013,15.431-2.105,27.781-8.407L63.747,31.623z"/>
<path fill="none" stroke="#FFFFFF" stroke-width="2" stroke-miterlimit="10" d="M109.971,115.742
	c-1.658-16.859-2.739-18.465-3.362-19.416c-4.128-5.486-13.371-10.266-32.63-16.797l-0.001,3.627
	c-0.021,11.225-9.292,17.098-18.447,17.098c-0.007,0-0.013,0-0.02,0c-9.153-0.01-18.419-5.896-18.419-17.135v-3.457
	C18.093,86.127,8.958,90.871,4.843,96.34c-0.613,0.938-1.695,2.541-3.352,19.402"/>
<path fill="none" stroke="#FFFFFF" stroke-width="2" stroke-miterlimit="10" d="M61.672,66.764"/>
<path fill="none" stroke="#FFFFFF" stroke-width="2" stroke-miterlimit="10" d="M59.365,72.707"/>
<path fill="none" stroke="#FFFFFF" stroke-width="2" stroke-miterlimit="10" d="M28.661,38.511c0.365-1.858,1.114-5.62,1.492-7.234
	c4.023-17.179,9.348-17.999,25.575-17.999c16.225,0,21.55,0.82,25.573,17.999c0.305,1.301,1.105,5.293,1.49,7.234"/>
<circle fill="none" stroke="#FFFFFF" stroke-width="2" stroke-miterlimit="10" cx="54.94" cy="72.576" r="4.295"/>
<ellipse fill="none" stroke="#FFFFFF" stroke-width="2" stroke-miterlimit="10" cx="27.976" cy="48.938" rx="3.72" ry="10.079"/>
<ellipse fill="none" stroke="#FFFFFF" stroke-width="2" stroke-miterlimit="10" cx="82.932" cy="48.938" rx="3.72" ry="10.079"/>
<path fill="none" stroke="#FFFFFF" stroke-width="2" stroke-miterlimit="10" d="M59.235,72.576c0,0,17.576,2.76,23.696-13.559"/>
</svg>
