<svg xmlns="http://www.w3.org/2000/svg" height="15" width="17" viewBox="0 0 17 15"><path fill-rule="evenodd"  d="M4.24 1.63C4.24 2.52 3.57 3.25 2.48 3.25 1.46 3.25 0.79 2.52 0.79 1.63 0.79 0.71 1.48 0 2.53 0 3.57 0 4.22 0.71 4.24 1.63L4.24 1.63ZM0.88 15L0.88 4.54 4.13 4.54 4.13 15 0.88 15 0.88 15ZM6.08 7.87C6.08 6.57 6.03 5.48 5.99 4.54L8.82 4.54 8.97 5.99 9.03 5.99C9.46 5.31 10.51 4.3 12.26 4.3 14.4 4.3 16 5.73 16 8.82L16 15 12.75 15 12.75 9.2C12.75 7.85 12.28 6.93 11.1 6.93 10.21 6.93 9.67 7.55 9.44 8.15 9.35 8.37 9.33 8.67 9.33 8.97L9.33 15 6.08 15 6.08 7.87 6.08 7.87ZM6.08 7.87"/></svg>