<?xml version="1.0" encoding="utf-8"?>
<!-- Generator: Adobe Illustrator 15.0.0, SVG Export Plug-In . SVG Version: 6.00 Build 0)  -->
<!DOCTYPE svg PUBLIC "-//W3C//DTD SVG 1.1//EN" "http://www.w3.org/Graphics/SVG/1.1/DTD/svg11.dtd">
<svg version="1.1" id="PDF_-_copie" xmlns="http://www.w3.org/2000/svg" xmlns:xlink="http://www.w3.org/1999/xlink" x="0px"
	 y="0px" width="16px" height="18px" viewBox="0 0 16 18" enable-background="new 0 0 16 18" xml:space="preserve">
<path fill-rule="evenodd" clip-rule="evenodd" d="M1.238,0C1.244,0,1.25,0,1.256,0c0.19,0,0.379,0,0.569,0s0.379,0,0.569,0
	s0.379,0,0.57,0C3.057,0,3.148,0,3.24,0c0.092,0,0.184,0,0.275,0c0.19,0,0.379,0,0.57,0c0.189,0,0.379,0,0.569,0
	c0.189,0,0.379,0,0.569,0c0.184,0,0.367,0,0.551,0c0.38,0,0.759,0,1.139,0c0.189,0,0.379,0,0.57,0c0.183,0,0.367,0,0.551,0
	c0.19,0,0.379,0,0.569,0c0.184,0,0.368,0,0.551,0c0.373,0,0.747,0,1.121,0c0.002,0.004-0.004,0.015,0,0.018
	c0.001,0.001,0.015,0,0.018,0c0.006,0,0.012,0,0.019,0c0.006,0,0.012,0,0.018,0c0.007,0,0.013-0.001,0.019,0
	c0.007,0,0.013,0,0.019,0c0.007,0,0.013,0,0.019,0c0.005,0,0.014-0.001,0.019,0c0.003,0,0.016-0.002,0.019,0
	c0.001,0.001-0.002,0.018,0,0.018c0.006,0.001,0.013,0,0.018,0c0.006,0,0.013,0,0.019,0s0.013,0,0.019,0s0.013,0,0.019,0
	s0.012,0,0.019,0c0.003,0,0.016-0.001,0.019,0c0.002,0.002-0.003,0.017,0,0.019s0.014-0.001,0.019,0s0.012,0,0.018,0
	s0.013-0.001,0.019,0c0.006,0.001,0.013,0,0.019,0c0.002,0,0.018-0.001,0.018,0c0.002,0.002-0.001,0.017,0,0.018
	c0.005,0.002,0.015,0,0.019,0c0.006,0,0.014-0.001,0.019,0c0.005,0.002,0.014,0,0.019,0c0.003,0,0.017-0.001,0.019,0
	c0.002,0.002-0.002,0.018,0,0.018c0.005,0.001,0.013,0,0.019,0c0.005,0,0.013-0.001,0.018,0c0.006,0.001,0.013,0,0.019,0
	s0.013,0,0.019,0c0.005,0,0.015-0.002,0.019,0c0.002,0.001-0.002,0.017,0,0.018c0.002,0.002,0.016-0.001,0.019,0
	c0.004,0.001,0.013,0,0.019,0c0.002,0,0.017-0.001,0.019,0c0.001,0.001-0.003,0.018,0,0.018c0.004,0.001,0.013,0,0.018,0
	s0.014-0.001,0.019,0c0.005,0.001,0.014,0,0.018,0c0.003,0,0.019-0.001,0.019,0c0.002,0.002-0.001,0.017,0,0.018
	c0.005,0.001,0.015,0,0.019,0c0.006,0,0.014-0.001,0.019,0c0.003,0.001,0.017-0.002,0.019,0s-0.003,0.016,0,0.018
	c0.003,0.002,0.014-0.001,0.019,0c0.006,0,0.013,0,0.019,0c0.005,0,0.014-0.001,0.018,0c0.002,0-0.002,0.017,0,0.018
	c0.002,0.002,0.017,0,0.019,0c0.005,0,0.014-0.001,0.019,0c0.004,0.001,0.016-0.002,0.019,0c0.001,0.002-0.003,0.018,0,0.019
	c0.005,0.001,0.014,0,0.019,0c0.006,0,0.012,0,0.019,0c0.004,0,0.014-0.002,0.019,0c0.002,0.001-0.003,0.016,0,0.018
	c0.002,0.003,0.014-0.001,0.018,0c0.005,0.002,0.014,0,0.019,0c0.002,0,0.018-0.001,0.018,0c0.002,0.002-0.001,0.018,0,0.018
	c0.005,0.001,0.015,0,0.019,0c0.005,0,0.015-0.002,0.019,0c0.003,0.001-0.001,0.016,0,0.018c0.002,0.001,0.016,0,0.019,0
	c0.005,0,0.014-0.002,0.019,0c0.003,0.001,0.016-0.002,0.019,0c0.002,0.001-0.002,0.018,0,0.018c0.004,0.002,0.014,0,0.018,0
	c0.002,0,0.018-0.001,0.019,0c0.002,0.002-0.002,0.017,0,0.018c0.005,0.001,0.014,0,0.019,0s0.014-0.001,0.019,0
	c0.004,0.001,0.016-0.002,0.019,0c0.002,0.002-0.003,0.017,0,0.018c0.004,0.001,0.014,0,0.019,0c0.004,0,0.014-0.002,0.019,0
	c0.002,0-0.003,0.016,0,0.018c0.001,0.001,0.015,0,0.018,0c0.005,0,0.015-0.002,0.019,0c0.004,0.001,0.016-0.003,0.019,0
	c0.002,0.001-0.003,0.017,0,0.018c0.004,0.002,0.014,0,0.018,0c0.003,0,0.019-0.002,0.019,0c0.002,0.002-0.001,0.017,0,0.018
	c0.005,0.002,0.015,0,0.019,0c0.005,0,0.015-0.002,0.019,0c0.003,0.001-0.002,0.016,0,0.018c0.002,0.001,0.016,0,0.019,0
	c0.004,0,0.015-0.002,0.019,0c0.002,0.001-0.002,0.016,0,0.018c0.002,0.003,0.015-0.002,0.019,0c0.003,0.002,0.016-0.002,0.019,0
	c0.002,0.003-0.003,0.017,0,0.019c0.004,0.002,0.014-0.002,0.018,0s0.016-0.003,0.019,0c0.002,0.002-0.003,0.017,0,0.018
	c0.004,0.002,0.015,0,0.019,0c0.002,0,0.017-0.001,0.019,0c0.001,0.002-0.003,0.017,0,0.018c0.004,0.001,0.014,0,0.019,0
	c0.003,0,0.015-0.002,0.018,0c0.003,0.001-0.002,0.016,0,0.018c0.002,0.001,0.016,0,0.019,0c0.004,0,0.015-0.002,0.018,0
	c0.004,0.001-0.001,0.016,0,0.018c0.004,0.002,0.016-0.002,0.019,0c0.004,0.002,0.016-0.003,0.019,0
	c0.003,0.002-0.003,0.016,0,0.018c0.005,0.003,0.014-0.002,0.019,0c0.004,0.002,0.016-0.003,0.019,0
	c0.002,0.002-0.003,0.016,0,0.018c0.004,0.002,0.016-0.003,0.019,0c0.002,0.002-0.002,0.017,0,0.018c0.004,0.002,0.014,0,0.019,0
	c0.004,0,0.015-0.001,0.019,0c0.002,0.002-0.003,0.016,0,0.019c0.001,0.001,0.016,0,0.018,0c0.005,0,0.016-0.002,0.019,0
	c0.003,0.001-0.002,0.016,0,0.018c0.003,0.003,0.015-0.002,0.019,0c0.003,0.002-0.003,0.015,0,0.018c0.001,0.001,0.016,0,0.019,0
	c0.004,0,0.015-0.002,0.019,0c0.002,0.001-0.003,0.016,0,0.018s0.015-0.003,0.019,0c0.003,0.002,0.015-0.003,0.018,0
	c0.003,0.002-0.003,0.016,0,0.018c0.004,0.002,0.015-0.003,0.019,0c0.003,0.002-0.003,0.015,0,0.018
	c0.003,0.003,0.015-0.002,0.018,0c0.004,0.003,0.016-0.003,0.019,0c0.004,0.003-0.003,0.016,0,0.018
	c0.005,0.003,0.015-0.003,0.019,0c0.003,0.002-0.003,0.015,0,0.018c0.003,0.003,0.015-0.002,0.019,0
	c0.004,0.003,0.016-0.003,0.019,0c0.002,0.003-0.003,0.017,0,0.019c0.004,0.002,0.015-0.003,0.019,0
	c0.003,0.002-0.003,0.015,0,0.018s0.015-0.003,0.019,0c0.003,0.002-0.003,0.015,0,0.018c0.001,0.001,0.016,0,0.019,0
	c0.004,0,0.015-0.002,0.019,0c0.002,0.001-0.003,0.016,0,0.018c0.002,0.003,0.015-0.002,0.018,0c0.003,0.002-0.003,0.016,0,0.018
	c0.002,0.001,0.016,0,0.019,0c0.004,0,0.015-0.001,0.019,0c0.003,0.001-0.003,0.016,0,0.018c0.003,0.003,0.015-0.002,0.019,0
	c0.003,0.003-0.004,0.015,0,0.018c0.003,0.003,0.015-0.003,0.018,0c0.004,0.003-0.003,0.015,0,0.018
	c0.004,0.003,0.015-0.002,0.019,0c0.004,0.003-0.003,0.016,0,0.018c0.003,0.003,0.017-0.002,0.019,0
	c0.001,0.002-0.002,0.018,0,0.019c0.004,0.002,0.014,0,0.018,0s0.018-0.002,0.019,0c0.003,0.002-0.002,0.015,0,0.018
	c0.003,0.002,0.018-0.003,0.019,0c0.003,0.004-0.003,0.014,0,0.018s0.016-0.003,0.019,0s-0.003,0.016,0,0.018
	c0.003,0.003,0.016-0.002,0.019,0c0.002,0.003-0.003,0.017,0,0.019c0.004,0.003,0.015-0.003,0.019,0
	c0.003,0.003-0.003,0.015,0,0.018s0.016-0.003,0.019,0s-0.003,0.015,0,0.018c0.002,0.003,0.016-0.002,0.019,0
	c0.002,0.004-0.003,0.015,0,0.018c0.002,0.003,0.016-0.002,0.018,0c0.003,0.003-0.003,0.015,0,0.019
	c0.003,0.003,0.016-0.003,0.019,0c0.003,0.002-0.003,0.016,0,0.018c0.005,0.002,0.015-0.003,0.019,0
	c0.003,0.002-0.003,0.015,0,0.018s0.015-0.003,0.019,0c0.003,0.003-0.004,0.015,0,0.018c0.002,0.003,0.016-0.002,0.019,0
	c0.002,0.004-0.004,0.015,0,0.019c0.002,0.003,0.015-0.002,0.018,0c0.004,0.003-0.003,0.015,0,0.018
	c0.004,0.003,0.016-0.003,0.019,0c0.003,0.002-0.003,0.016,0,0.018c0.004,0.002,0.015-0.003,0.018,0
	c0.004,0.002-0.002,0.015,0,0.018c0.004,0.003,0.016-0.003,0.019,0c0.004,0.003-0.002,0.015,0,0.019
	c0.004,0.002,0.016-0.003,0.019,0c0.003,0.002-0.003,0.015,0,0.018c0.003,0.003,0.016-0.003,0.019,0
	c0.003,0.003-0.003,0.015,0,0.018c0.003,0.002,0.017-0.003,0.019,0c0.003,0.004-0.003,0.014,0,0.018
	c0.002,0.003,0.016-0.002,0.019,0c0.003,0.003-0.003,0.016,0,0.019s0.016-0.003,0.019,0c0.002,0.002-0.003,0.016,0,0.018
	c0.004,0.003,0.015-0.003,0.019,0c0.003,0.003-0.003,0.015,0,0.018c0.003,0.002,0.016-0.003,0.019,0
	c0.002,0.002-0.003,0.015,0,0.018c0.002,0.002,0.016-0.003,0.018,0c0.003,0.004-0.003,0.015,0,0.019
	c0.003,0.002,0.016-0.003,0.019,0c0.003,0.002-0.003,0.015,0,0.018c0.003,0.003,0.016-0.003,0.019,0
	c0.002,0.002-0.003,0.016,0,0.018c0.004,0.002,0.015-0.003,0.019,0c0.003,0.002-0.004,0.015,0,0.018
	c0.003,0.003,0.015-0.003,0.019,0c0.003,0.003-0.004,0.016,0,0.019c0.002,0.002,0.016-0.003,0.018,0
	c0.003,0.003-0.003,0.014,0,0.018c0.003,0.003,0.016-0.003,0.019,0s-0.003,0.015,0,0.018c0.003,0.002,0.016-0.003,0.019,0
	c0.003,0.002-0.003,0.016,0,0.018c0.004,0.002,0.015-0.003,0.019,0c0.003,0.002-0.003,0.015,0,0.019
	c0.003,0.002,0.015-0.003,0.018,0c0.003,0.002-0.003,0.015,0,0.018c0.003,0.002,0.018-0.003,0.019,0
	c0.003,0.004-0.003,0.014,0,0.018c0.003,0.003,0.016-0.003,0.019,0s-0.003,0.015,0,0.018c0.003,0.003,0.016-0.003,0.019,0
	c0.003,0.003-0.003,0.016,0,0.018c0.003,0.003,0.016-0.002,0.019,0c0.003,0.003-0.003,0.016,0,0.019s0.016-0.003,0.019,0
	c0.002,0.002-0.003,0.016,0,0.018c0.004,0.002,0.015-0.003,0.019,0c0.003,0.002-0.003,0.015,0,0.018s0.015-0.003,0.018,0
	c0.004,0.003-0.003,0.015,0,0.018c0.003,0.002,0.017-0.003,0.019,0c0.003,0.004-0.003,0.015,0,0.018s0.016-0.003,0.019,0
	c0.003,0.003-0.003,0.015,0,0.018c0.003,0.003,0.015-0.003,0.019,0c0.002,0.003-0.004,0.016,0,0.018
	c0.004,0.003,0.015-0.003,0.018,0c0.004,0.003-0.003,0.016,0,0.018c0.004,0.003,0.016-0.002,0.019,0
	c0.004,0.003-0.003,0.016,0,0.019c0.003,0.002,0.017-0.003,0.019,0c0.003,0.004-0.003,0.014,0,0.018s0.016-0.003,0.019,0
	s-0.003,0.015,0,0.018c0.003,0.003,0.015-0.003,0.018,0c0.003,0.002-0.002,0.016,0,0.018c0.005,0.002,0.016-0.003,0.019,0
	c0.003,0.002-0.003,0.015,0,0.018c0.003,0.003,0.016-0.003,0.019,0c0.003,0.003-0.003,0.015,0,0.018
	c0.003,0.002,0.017-0.003,0.019,0c0.002,0.004-0.003,0.014,0,0.018c0.002,0.003,0.016-0.002,0.019,0
	c0.003,0.003-0.003,0.016,0,0.018c0.003,0.003,0.016-0.002,0.019,0c0.002,0.003-0.003,0.017,0,0.019
	c0.004,0.002,0.015-0.003,0.019,0c0.003,0.002-0.003,0.015,0,0.018s0.015-0.003,0.019,0c0.003,0.003-0.003,0.015,0,0.018
	c0.003,0.003,0.015-0.003,0.018,0c0.003,0.003-0.003,0.015,0,0.018s0.016-0.003,0.019,0s-0.003,0.015,0,0.018
	c0.003,0.002,0.017-0.003,0.019,0c0.003,0.003-0.004,0.014,0,0.018c0.003,0.003,0.015-0.003,0.019,0
	c0.003,0.003-0.004,0.015,0,0.018c0.003,0.003,0.015-0.003,0.018,0s-0.003,0.016,0,0.018c0.004,0.003,0.015-0.003,0.019,0
	s-0.003,0.016,0,0.019c0.004,0.002,0.016-0.003,0.019,0c0.003,0.002-0.003,0.015,0,0.018c0.003,0.002,0.017-0.003,0.019,0
	c0.003,0.004-0.003,0.015,0,0.018c0.003,0.003,0.016-0.003,0.019,0c0.002,0.003-0.004,0.015,0,0.018
	c0.002,0.003,0.015-0.003,0.018,0c0.003,0.002-0.003,0.016,0,0.018c0.004,0.002,0.016-0.003,0.019,0
	c0.003,0.002-0.002,0.015,0,0.018c0.003,0.003,0.016-0.003,0.019,0s-0.003,0.015,0,0.018c0.002,0.003,0.017-0.002,0.019,0
	c0.002,0.004-0.003,0.015,0,0.018c0.002,0.003,0.016-0.003,0.019,0s-0.003,0.016,0,0.019c0.003,0.002,0.016-0.003,0.019,0
	c0.002,0.002-0.003,0.016,0,0.018c0.004,0.002,0.015-0.003,0.019,0c0.003,0.002-0.004,0.015,0,0.018
	c0.003,0.003,0.015-0.003,0.018,0c0.003,0.003-0.003,0.015,0,0.018c0.003,0.002,0.017-0.003,0.019,0
	c0.003,0.003-0.003,0.014,0,0.018c0.003,0.003,0.015-0.003,0.019,0c0.003,0.003-0.004,0.015,0,0.018
	c0.003,0.003,0.015-0.003,0.018,0c0.004,0.003-0.003,0.015,0,0.018c0.004,0.003,0.016-0.003,0.019,0
	c0.004,0.003-0.003,0.015,0,0.018c0.004,0.003,0.016-0.003,0.019,0s-0.003,0.017,0,0.018c0.004,0.002,0.015-0.002,0.019,0
	c0.003,0.002-0.003,0.015,0,0.018s0.016-0.003,0.019,0s-0.003,0.015,0,0.018c0.002,0.002,0.017-0.003,0.018,0
	c0.003,0.004-0.003,0.014,0,0.018s0.016-0.003,0.019,0c0.003,0.003-0.003,0.016,0,0.018c0.003,0.003,0.016-0.002,0.019,0
	s-0.003,0.016,0,0.018c0.004,0.003,0.015-0.002,0.019,0c0.003,0.003-0.003,0.016,0,0.018c0.003,0.003,0.016-0.003,0.019,0
	s-0.003,0.015,0,0.018c0.002,0.002,0.016-0.003,0.019,0c0.002,0.004-0.003,0.015,0,0.018c0.002,0.003,0.016-0.003,0.019,0
	s-0.003,0.015,0,0.018c0.003,0.003,0.015-0.003,0.018,0c0.003,0.002-0.003,0.016,0,0.018c0.005,0.002,0.016-0.003,0.019,0
	c0.003,0.002-0.003,0.015,0,0.018c0.003,0.003,0.015-0.003,0.019,0c0.003,0.003-0.004,0.016,0,0.018
	c0.003,0.002,0.017-0.002,0.019,0c0.003,0.004-0.004,0.015,0,0.018c0.003,0.003,0.015-0.002,0.018,0
	c0.004,0.003-0.003,0.015,0,0.018c0.004,0.003,0.016-0.003,0.019,0s-0.003,0.016,0,0.018c0.004,0.002,0.015-0.003,0.019,0
	c0.003,0.002-0.003,0.015,0,0.018s0.016-0.003,0.019,0s-0.003,0.015,0,0.019c0.003,0.002,0.017-0.003,0.019,0
	c0.002,0.003-0.003,0.014,0,0.018c0.002,0.003,0.016-0.003,0.018,0c0.003,0.003-0.003,0.015,0,0.018
	c0.003,0.003,0.016-0.003,0.019,0s-0.002,0.016,0,0.018c0.004,0.003,0.015-0.003,0.019,0c0.003,0.002-0.003,0.016,0,0.018
	c0.003,0.003,0.016-0.002,0.019,0c0.003,0.003-0.003,0.015,0,0.018c0.002,0.003,0.016-0.002,0.019,0
	c0.002,0.004-0.003,0.014,0,0.018c0.002,0.003,0.016-0.003,0.019,0s-0.003,0.015,0,0.018c0.003,0.003,0.016-0.003,0.019,0
	c0.002,0.002-0.003,0.016,0,0.019c0.004,0.001,0.015-0.003,0.019,0c0.003,0.001-0.004,0.015,0,0.018
	c0.003,0.003,0.015-0.003,0.018,0c0.003,0.003-0.003,0.015,0,0.018s0.017-0.003,0.019,0c0.003,0.004-0.004,0.014,0,0.018
	c0.003,0.003,0.015-0.003,0.019,0c0.003,0.003-0.004,0.015,0,0.018c0.003,0.003,0.015-0.003,0.018,0
	c0.003,0.002-0.003,0.016,0,0.018c0.004,0.003,0.015-0.003,0.019,0c0.003,0.003-0.003,0.015,0,0.018s0.016-0.003,0.019,0
	s-0.003,0.015,0,0.018c0.003,0.002,0.017-0.003,0.019,0c0.003,0.004-0.003,0.015,0,0.019c0.003,0.002,0.016-0.003,0.019,0
	c0.002,0.002-0.004,0.014,0,0.018c0.003,0.003,0.015-0.003,0.018,0c0.003,0.002-0.002,0.016,0,0.018
	c0.005,0.003,0.016-0.003,0.019,0s-0.002,0.015,0,0.018c0.003,0.003,0.016-0.003,0.019,0s-0.003,0.016,0,0.018
	c0.003,0.003,0.016-0.003,0.019,0s-0.003,0.015,0,0.018s0.016-0.003,0.019,0s-0.003,0.015,0,0.018c0.002,0.002,0.016-0.003,0.019,0
	c0.002,0.004-0.003,0.014,0,0.018c0.002,0.003,0.015-0.003,0.019,0c0.003,0.003-0.004,0.015,0,0.018
	c0.003,0.002,0.015-0.003,0.018,0c0.003,0.002-0.003,0.016,0,0.018c0.004,0.002,0.016-0.003,0.019,0
	c0.003,0.002-0.003,0.015,0,0.018c0.003,0.003,0.015-0.003,0.019,0c0.003,0.003-0.004,0.015,0,0.018
	c0.003,0.002,0.017-0.003,0.018,0c0.004,0.004-0.003,0.015,0,0.018c0.004,0.003,0.016-0.002,0.019,0
	c0.004,0.003-0.003,0.016,0,0.019c0.004,0.003,0.016-0.003,0.019,0s-0.003,0.016,0,0.018c0.004,0.002,0.015-0.003,0.019,0
	c0.003,0.002-0.003,0.015,0,0.018c0.003,0.003,0.016-0.003,0.019,0c0.003,0.003-0.003,0.015,0,0.018
	c0.002,0.002,0.017-0.002,0.019,0c0.002,0.004-0.003,0.015,0,0.018c0.002,0.003,0.016-0.002,0.018,0
	c0.003,0.003-0.002,0.015,0,0.018c0.003,0.003,0.016-0.003,0.019,0s-0.003,0.016,0,0.018c0.004,0.003,0.015-0.003,0.019,0
	c0.003,0.003-0.003,0.016,0,0.018s0.016-0.002,0.019,0c0.003,0.003-0.003,0.015,0,0.018c0.002,0.002,0.016-0.003,0.019,0
	c0.002,0.004-0.003,0.015,0,0.018c0.002,0.003,0.016-0.003,0.019,0c0.003,0.003-0.003,0.015,0,0.018
	c0.003,0.003,0.015-0.003,0.019,0c0.003,0.003-0.004,0.015,0,0.018c0.003,0.003,0.015-0.002,0.019,0
	c0.002,0.003-0.004,0.015,0,0.018c0.002,0.003,0.014-0.003,0.018,0c0.003,0.003-0.003,0.016,0,0.018
	c0.004,0.003,0.015-0.003,0.019,0c0.003,0.003-0.003,0.015,0,0.018s0.015-0.003,0.018,0c0.004,0.003-0.003,0.015,0,0.018
	c0.004,0.002,0.018-0.003,0.019,0c0.004,0.004-0.003,0.015,0,0.018c0.003,0.003,0.016-0.003,0.019,0s-0.003,0.015,0,0.018
	c0.003,0.003,0.016-0.003,0.019,0c0.003,0.002-0.003,0.016,0,0.018c0.004,0.002,0.015-0.003,0.019,0
	c0.003,0.002-0.003,0.015,0,0.018s0.016-0.003,0.019,0c0.003,0.003-0.003,0.015,0,0.018c0.002,0.002,0.017-0.003,0.018,0
	c0.003,0.004-0.003,0.014,0,0.018c0.003,0.003,0.017-0.003,0.019,0c0.003,0.003-0.003,0.015,0,0.018s0.016-0.003,0.019,0
	c0.002,0.002-0.003,0.016,0,0.018c0.004,0.002,0.015-0.003,0.019,0c0.003,0.002-0.003,0.015,0,0.018
	c0.003,0.002,0.016-0.003,0.019,0c0.003,0.002-0.003,0.015,0,0.018c0.002,0.002,0.016-0.003,0.019,0
	c0.002,0.004-0.003,0.014,0,0.018c0.002,0.003,0.015-0.003,0.019,0c0.003,0.003-0.004,0.015,0,0.018
	c0.003,0.003,0.015-0.003,0.018,0c0.003,0.002-0.003,0.016,0,0.018c0.004,0.002,0.015-0.003,0.019,0
	c0.003,0.002-0.003,0.015,0,0.018s0.015-0.003,0.019,0c0.003,0.003-0.004,0.015,0,0.018c0.003,0.003,0.015-0.003,0.018,0
	c0.004,0.003-0.003,0.015,0,0.018c0.004,0.003,0.017-0.003,0.019,0c0.002,0.002,0,0.016,0,0.019c0,0.002-0.001,0.017,0,0.018
	c0.003,0.002,0.016-0.003,0.019,0c0.003,0.003-0.003,0.015,0,0.018s0.016-0.003,0.019,0c0.003,0.004-0.003,0.015,0,0.018
	c0.003,0.002,0.017-0.003,0.019,0c0.002,0.004-0.003,0.015,0,0.018c0.002,0.003,0.016-0.002,0.018,0
	c0.004,0.003-0.002,0.015,0,0.018c0.003,0.003-0.002,0.015,0,0.018c0.003,0.002,0.018-0.003,0.019,0
	c0.003,0.004-0.002,0.014,0,0.018c0.003,0.003,0.016-0.003,0.019,0c0.003,0.003-0.002,0.015,0,0.018s0.017-0.002,0.019,0
	c0.001,0.002,0,0.016,0,0.019c0,0.004-0.002,0.014,0,0.018c0.001,0.003,0.016-0.002,0.019,0c0.003,0.003-0.003,0.014,0,0.018
	c0.002,0.003,0.016-0.002,0.019,0c0.001,0.001,0,0.016,0,0.018c0,0.004-0.003,0.015,0,0.019c0.001,0.003,0.016-0.002,0.019,0
	c0.003,0.003-0.003,0.014,0,0.018c0.001,0.002,0.015-0.003,0.019,0c0.001,0.001,0,0.015,0,0.018c0,0.004-0.003,0.015,0,0.018
	c0.001,0.002,0.016-0.002,0.018,0c0.003,0.003-0.003,0.015,0,0.019c0.002,0.003,0.016-0.003,0.019,0c0.002,0.001,0,0.015,0,0.018
	c0,0.004-0.002,0.014,0,0.018c0.001,0.002,0.016-0.002,0.018,0c0.004,0.003-0.002,0.015,0,0.018c0.003,0.003,0.017-0.002,0.019,0
	c0.004,0.003-0.002,0.015,0,0.019c0.003,0.003-0.003,0.015,0,0.018c0.003,0.002,0.018-0.003,0.019,0c0.002,0.003,0,0.014,0,0.018
	c0,0.002-0.001,0.017,0,0.018c0.004,0.002,0.016-0.003,0.019,0c0.003,0.003-0.003,0.015,0,0.019c0.003,0.002,0.018-0.003,0.019,0
	c0.002,0.003,0,0.014,0,0.018c0,0.002-0.001,0.017,0,0.018c0.002,0.001,0.018-0.002,0.019,0c0.002,0.004,0,0.013,0,0.018
	c0,0.004-0.002,0.015,0,0.019c0.002,0.002,0.016-0.002,0.019,0c0.002,0.001-0.001,0.015,0,0.018c0,0.004-0.002,0.014,0,0.018
	c0.002,0.002,0.016-0.002,0.018,0c0.003,0.003-0.002,0.015,0,0.018c0.002,0.004-0.003,0.015,0,0.019
	c0.003,0.002,0.017-0.003,0.019,0c0.003,0.003-0.003,0.014,0,0.018c0.003,0.003,0.016-0.003,0.019,0s-0.002,0.014,0,0.018
	c0.002,0.004-0.003,0.016,0,0.018c0.003,0.003,0.017-0.002,0.019,0c0.003,0.004-0.003,0.014,0,0.019
	c0.002,0.003-0.003,0.015,0,0.018c0.002,0.002,0.017-0.003,0.019,0c0.001,0.003,0,0.014,0,0.018c0,0.002-0.002,0.017,0,0.018
	c0.001,0.001,0.018-0.002,0.019,0c0.001,0.004,0,0.013,0,0.019c0,0.003-0.002,0.014,0,0.018c0.001,0.003-0.004,0.015,0,0.018
	c0.002,0.003,0.016-0.002,0.019,0c0.002,0.005-0.004,0.014,0,0.018c0.002,0.004-0.004,0.016,0,0.019
	c0.002,0.002,0.017-0.003,0.018,0c0.002,0.003,0,0.014,0,0.018c0,0.004-0.002,0.014,0,0.018c0.001,0.002,0.017-0.002,0.019,0
	c0.003,0.003-0.002,0.015,0,0.018c0.002,0.004-0.003,0.016,0,0.018c0.003,0.003,0.017-0.002,0.018,0
	c0.004,0.004-0.002,0.014,0,0.019c0.003,0.003-0.003,0.015,0,0.018c0.003,0.002,0.019-0.002,0.019,0c0.002,0.004,0,0.014,0,0.018
	c0,0.006,0,0.012,0,0.018c0,0.004-0.001,0.014,0,0.019c0.001,0.002,0.018-0.002,0.019,0c0.003,0.002-0.001,0.014,0,0.018
	c0.002,0.003-0.002,0.015,0,0.018c0.003,0.002,0.017-0.003,0.019,0c0.003,0.003-0.001,0.014,0,0.018c0.001,0.005,0,0.013,0,0.019
	c0,0.004-0.001,0.014,0,0.018c0.001,0.002,0.017-0.002,0.019,0s0,0.016,0,0.018c0,0.004-0.002,0.015,0,0.018
	c0.002,0.002,0.017-0.002,0.019,0c0.002,0.002-0.002,0.015,0,0.018c0.002,0.004,0,0.013,0,0.019c0,0.002-0.002,0.016,0,0.018
	s0.018-0.002,0.018,0c0.002,0.004,0,0.013,0,0.018c0,0.005-0.001,0.014,0,0.019c0.002,0.003-0.002,0.016,0,0.018
	c0.003,0.003,0.017-0.002,0.019,0c0.002,0.004-0.001,0.014,0,0.018c0.002,0.006,0,0.013,0,0.018c0,0.005-0.002,0.013,0,0.019
	c0.001,0.002,0.017-0.001,0.019,0s0,0.015,0,0.018c0.001,0.005-0.002,0.014,0,0.018c0.002,0.003-0.002,0.015,0,0.018
	c0.002,0.002,0.018-0.002,0.019,0c0.001,0.005,0,0.014,0,0.019s-0.001,0.013,0,0.018c0.001,0.003-0.003,0.015,0,0.018
	c0.001,0.001,0.018-0.002,0.019,0c0.001,0.005,0,0.014,0,0.018c0,0.006,0,0.012,0,0.019c0,0.004-0.002,0.013,0,0.018
	c0.001,0.003-0.003,0.015,0,0.018c0.001,0.001,0.018-0.002,0.019,0c0.001,0.005,0,0.013,0,0.018c0,0.006,0,0.013,0,0.019
	c0,0.004-0.002,0.014,0,0.018c0,0.002,0.016-0.002,0.019,0c0.002,0.002-0.001,0.015,0,0.018c0.001,0.005,0,0.013,0,0.018
	c0,0.006,0,0.012,0,0.018c0,0.004-0.003,0.014,0,0.018c0,0.002,0.016-0.002,0.018,0c0.003,0.002,0,0.015,0,0.018
	c0.001,0.005,0,0.012,0,0.018c0,0.006,0,0.013,0,0.018c0,0.004-0.002,0.014,0,0.018c0.001,0.003,0.017-0.002,0.019,0
	c0.002,0.002,0,0.015,0,0.018c0.001,0.005,0,0.012,0,0.018s0,0.012,0,0.018c0,0.005-0.001,0.013,0,0.018
	c0.001,0.003-0.003,0.016,0,0.018c0.001,0.001,0.019-0.001,0.019,0c0.001,0.006,0,0.012,0,0.018c0,0.006,0,0.013,0,0.018
	c0,0.007,0,0.013,0,0.019c0,0.006,0,0.011,0,0.018c0,0.006-0.001,0.012,0,0.018c0,0.001,0.018-0.001,0.018,0
	c0.003,0.001,0,0.015,0,0.018c0.001,0.006,0,0.012,0,0.018c0.001,0.005,0,0.012,0,0.018c0,0.006,0,0.012,0,0.018
	c0.001,0.006,0,0.012,0,0.018c0,0.005,0,0.013,0,0.018c0.001,0.003-0.002,0.016,0,0.018c0.002,0.001,0.019-0.001,0.019,0
	c0.001,0.006,0,0.012,0,0.018c0,0.006,0,0.012,0,0.018s0,0.012,0,0.018c0,0.012,0,0.024,0,0.036c0,0.024,0,0.048,0,0.072
	c0,0.006,0,0.012,0,0.018c0,0.002-0.001,0.016,0,0.018c0.003,0.002,0.018-0.003,0.019,0c0.003,0.003-0.001,0.014,0,0.018
	c0.001,0.006,0,0.012,0,0.018c0,0.006-0.001,0.012,0,0.018s0,0.012,0,0.018s0,0.012,0,0.018c0,0.006,0,0.012,0,0.018
	c0,0.006,0,0.012,0,0.018c0,0.006,0,0.013,0,0.019c0,0.005,0,0.012,0,0.018c0,0.006,0,0.012,0,0.018c0,0.018,0,0.036,0,0.054
	c0,0.018,0,0.036,0,0.054c0,0.012,0,0.024,0,0.036c0,0.018,0,0.036,0,0.054c0,0.012,0,0.024,0,0.036c0,0.018,0,0.036,0,0.054
	c0,0.012,0,0.024,0,0.036c0,0.018,0,0.036,0,0.054c0,0.013,0,0.024,0,0.036c0,0.018,0,0.036,0,0.054c0,0.012,0,0.024,0,0.037
	c0,0.018,0,0.035,0,0.054c0,0.012,0,0.024,0,0.036c0,0.018,0,0.036,0,0.054c0,0.012,0,0.024,0,0.035c0,0.019,0,0.037,0,0.054
	c0,0.012,0,0.024,0,0.036c0,0.018,0,0.036,0,0.054c0,0.013,0,0.024,0,0.037c0,0.054,0,0.108,0,0.162c0,0.018,0,0.036,0,0.054
	c0,0.012,0,0.024,0,0.036c0,0.018,0,0.037,0,0.055c0,0.012,0,0.023,0,0.036c0,0.018,0,0.036,0,0.054c0,0.012,0,0.024,0,0.037
	c0,0.018,0,0.036,0,0.054c0,0.012,0,0.024,0,0.036c0,0.114,0,0.228,0,0.342c0,0.018,0,0.036,0,0.054c0,0.013,0,0.024,0,0.037
	c0,0.018,0,0.036,0,0.054c0,0.012,0,0.024,0,0.036c0,0.018,0,0.036,0,0.054c0,0.012,0,0.024,0,0.035c0,0.018,0,0.037,0,0.055
	c0,0.012,0,0.024,0,0.036c0,0.019,0,0.037,0,0.055c0,0.012,0,0.024,0,0.036c0,0.018,0,0.035,0,0.053c0,0.012,0,0.024,0,0.037
	c0,0.053,0,0.107,0,0.162c0,0.018,0,0.036,0,0.053c0,0.012,0,0.024,0,0.036c0,0.018,0,0.036,0,0.054c0,0.012,0,0.024,0,0.036
	c0,0.018,0,0.036,0,0.054c0,0.012,0,0.024,0,0.037c0,0.018,0,0.036,0,0.054c0,0.012,0,0.023,0,0.036c0,0.114,0,0.229,0,0.341
	c0,0.019,0,0.037,0,0.054c0,0.013,0,0.024,0,0.037c0,0.018,0,0.036,0,0.054c0,0.012,0,0.024,0,0.036c0,0.03,0,0.06,0,0.09
	c0,0.029,0,0.06,0,0.089c0,0.115,0,0.228,0,0.343c0,0.03,0,0.06,0,0.09s0,0.061,0,0.089c0,0.031,0,0.061,0,0.091s0,0.061,0,0.09
	c0,0.114,0,0.229,0,0.342c0,0.031,0,0.061,0,0.09c0,0.031,0,0.061,0,0.091s0,0.061,0,0.09c0,0.03,0,0.06,0,0.09
	c0,0.114,0,0.229,0,0.342c0,0.019,0,0.037,0,0.055c0,0.012,0,0.024,0,0.036c0,0.018,0,0.035,0,0.053c0,0.013,0,0.025,0,0.037
	c0,0.017,0,0.035,0,0.054c0,0.012,0,0.023,0,0.036c0,0.018,0,0.036,0,0.055c0,0.011,0,0.023,0,0.035c0,0.019,0,0.036,0,0.054
	c0,0.013,0,0.024,0,0.036c0,0.019,0,0.035,0,0.054c0,0.013,0,0.023,0,0.036c0,0.019,0,0.036,0,0.055c0,0.012,0,0.024,0,0.035
	c0,0.019,0,0.037,0,0.054c0,0.013,0,0.025,0,0.036c0,0.019,0,0.037,0,0.054c0,0.013,0,0.024,0,0.036c0,0.019,0,0.037,0,0.055
	c0,0.012,0,0.024,0,0.037c0,0.017,0,0.035,0,0.053c0,0.013,0,0.024,0,0.037c0,0.017,0,0.035,0,0.054c0,0.011,0,0.022,0,0.035
	c0,0.061,0,0.12,0,0.18c0,0.055,0,0.108,0,0.163c0,0.018,0,0.036,0,0.054c0,0.012,0,0.024,0,0.036c0,0.018,0,0.036,0,0.055
	c0,0.011,0,0.022,0,0.035c0,0.018,0,0.035,0,0.054c0,0.012,0,0.023,0,0.036c0,0.019,0,0.036,0,0.055c0,0.012,0,0.023,0,0.035
	c0,0.114,0,0.228,0,0.343c0,0.018,0,0.035,0,0.054c0,0.012,0,0.023,0,0.036c0,0.018,0,0.035,0,0.054c0,0.012,0,0.023,0,0.036
	c0,0.018,0,0.035,0,0.054c0,0.013,0,0.024,0,0.036c0,0.019,0,0.035,0,0.054c0,0.013,0,0.024,0,0.036c0,0.114,0,0.229,0,0.342
	c0,0.019,0,0.036,0,0.055c0,0.012,0,0.024,0,0.035c0,0.019,0,0.037,0,0.055c0,0.013,0,0.023,0,0.035c0,0.019,0,0.037,0,0.055
	c0,0.012,0,0.023,0,0.035c0,0.019,0,0.037,0,0.055c0,0.012,0,0.024,0,0.036c0,0.06,0,0.12,0,0.18c0,0.055,0,0.108,0,0.162
	c0,0.019,0,0.037,0,0.054c0,0.013,0,0.024,0,0.037c0,0.018,0,0.035,0,0.053c0,0.012,0,0.024,0,0.037c0,0.018,0,0.035,0,0.054
	c0,0.012,0,0.024,0,0.036c0,0.018,0,0.036,0,0.054c0,0.012,0,0.023,0,0.036c0,0.113,0,0.229,0,0.342c0,0.018,0,0.036,0,0.055
	c0,0.011,0,0.023,0,0.035c0,0.018,0,0.036,0,0.055c0,0.012,0,0.023,0,0.036c0,0.018,0,0.035,0,0.054c0,0.012,0,0.023,0,0.035
	c0,0.019,0,0.036,0,0.055c0,0.012,0,0.023,0,0.035c0,0.115,0,0.228,0,0.343c0,0.019,0,0.036,0,0.055c0,0.012,0,0.022,0,0.035
	c0,0.019,0,0.036,0,0.055c0,0.012,0,0.022,0,0.035c0,0.019,0,0.035,0,0.054c0,0.013,0,0.024,0,0.036c0,0.024,0,0.049,0,0.073
	c0,0.006,0,0.011,0,0.018c0,0.006,0,0.012,0,0.018s0,0.012,0,0.019c0,0.018,0,0.036,0,0.053c0,0.024,0,0.048,0,0.072
	c0,0.007,0.001,0.013,0,0.019c0,0.002-0.017-0.001-0.019,0c-0.001,0.002,0,0.015,0,0.018c0,0.006,0.001,0.013,0,0.019
	c0,0.006,0,0.013,0,0.018c0,0.006,0,0.013,0,0.019s0,0.012,0,0.019c0,0.006,0,0.011,0,0.018c0,0.005,0,0.011,0,0.018
	c0,0.005,0.001,0.013,0,0.019c0,0.001-0.017-0.001-0.019,0c-0.002,0.002,0.001,0.014,0,0.018c0,0.005,0,0.013,0,0.019
	c0,0.005,0.002,0.013,0,0.017c0,0.006,0,0.014,0,0.019c0,0.004,0.003,0.015,0,0.018c0,0.004-0.016-0.001-0.018,0
	c-0.003,0.003,0.001,0.015,0,0.018c-0.001,0.006,0,0.014,0,0.019c0,0.006,0.001,0.014,0,0.019c-0.001,0.002,0.002,0.016,0,0.018
	s-0.019-0.001-0.019,0c-0.001,0.005,0,0.013,0,0.019s0.001,0.013,0,0.018c-0.001,0.003,0.003,0.016,0,0.019
	c-0.002,0.001-0.019-0.003-0.019,0c-0.001,0.005,0,0.013,0,0.019c0,0.004,0.001,0.011,0,0.017c0,0.004,0.003,0.016,0,0.019
	c-0.002,0.002-0.018-0.003-0.018,0c-0.002,0.004,0,0.014,0,0.019c0,0.003,0.001,0.014,0,0.018c-0.002,0.002-0.018-0.003-0.019,0
	c-0.003,0.002,0.001,0.015,0,0.018c-0.002,0.004,0.002,0.015,0,0.018c-0.003,0.002-0.018-0.002-0.019,0
	c-0.002,0.004,0,0.014,0,0.019s0.001,0.014,0,0.018c-0.002,0.004,0.002,0.016,0,0.018c-0.003,0.003-0.018-0.001-0.019,0
	c-0.002,0.005,0,0.015,0,0.019c0,0.005,0.002,0.016,0,0.018c-0.001,0.003-0.017-0.001-0.019,0c-0.003,0.003,0.003,0.016,0,0.019
	s-0.016-0.003-0.019,0c-0.002,0.003,0.002,0.015,0,0.019c-0.002,0.003,0.003,0.015,0,0.018c-0.002,0.001-0.017-0.003-0.019,0
	c-0.001,0.004,0,0.014,0,0.019c0,0.003,0.002,0.016,0,0.019c-0.001,0.003-0.016-0.003-0.018,0c-0.003,0.003,0.003,0.014,0,0.018
	c-0.003,0.003-0.016-0.004-0.019,0c-0.003,0.003,0.002,0.014,0,0.018c-0.003,0.004,0.003,0.015,0,0.018s-0.016-0.003-0.019,0
	s0.003,0.015,0,0.019c-0.003,0.002-0.016-0.004-0.019,0c-0.002,0.003,0.003,0.015,0,0.018c-0.001,0.003-0.018-0.002-0.019,0
	c-0.001,0.004,0,0.014,0,0.018s0.003,0.016,0,0.018c-0.001,0.004-0.015-0.002-0.019,0c-0.003,0.004,0.004,0.016,0,0.019
	c-0.003,0.004-0.015-0.003-0.018,0c-0.004,0.004,0.003,0.015,0,0.018s-0.016-0.003-0.019,0c-0.004,0.003,0.004,0.016,0,0.019
	s-0.015-0.003-0.018,0c-0.004,0.003,0.003,0.016,0,0.018c-0.004,0.003-0.016-0.002-0.019,0c-0.004,0.003,0.003,0.017,0,0.019
	c-0.004,0.002-0.016-0.003-0.019,0s0.003,0.016,0,0.019s-0.016-0.003-0.019,0s0.003,0.015,0,0.018s-0.016-0.003-0.019,0
	s0.003,0.016,0,0.019s-0.016-0.003-0.019,0s0.003,0.016,0,0.019c-0.003,0.002-0.015-0.003-0.019,0c-0.003,0.001,0.003,0.014,0,0.017
	c-0.003,0.004-0.015-0.003-0.018,0c-0.003,0.004,0.003,0.016,0,0.019s-0.016-0.003-0.019,0c-0.003,0.002,0.002,0.015,0,0.018
	c-0.003,0.003-0.015-0.003-0.019,0c-0.004,0.002-0.016-0.004-0.019,0c-0.003,0.002,0.003,0.016,0,0.019
	c-0.004,0.002-0.016-0.004-0.019,0c-0.003,0.003,0.003,0.015,0,0.018c-0.003,0.004-0.015-0.003-0.019,0
	c-0.002,0.003,0.004,0.016,0,0.018c-0.002,0.002-0.015,0-0.019,0s-0.014-0.002-0.018,0c-0.003,0.001,0.002,0.017,0,0.018
	c-0.004,0.004-0.015-0.001-0.019,0c-0.003,0.003,0.003,0.017,0,0.019c-0.003,0.003-0.015-0.002-0.018,0
	c-0.004,0.003-0.016-0.003-0.019,0s0.002,0.017,0,0.018c-0.004,0.003-0.016-0.003-0.019,0s0.002,0.018,0,0.019
	c-0.004,0.002-0.014,0-0.019,0c-0.004,0-0.016-0.001-0.019,0c-0.002,0.002,0.002,0.016,0,0.018c-0.003,0.003-0.015-0.002-0.019,0
	s-0.016-0.003-0.019,0c-0.001,0.002,0.003,0.017,0,0.019s-0.014,0-0.019,0c-0.004,0-0.014-0.002-0.018,0
	c-0.002,0.001,0.002,0.017,0,0.019c-0.003,0.003-0.016-0.002-0.019,0c-0.004,0.001-0.016-0.003-0.019,0
	c-0.002,0.001,0.003,0.016,0,0.018c-0.004,0.001-0.014,0-0.019,0c-0.004,0-0.014-0.002-0.019,0c-0.003,0.001-0.015-0.003-0.018,0
	c-0.002,0.001,0.002,0.017,0,0.019c-0.004,0.001-0.015,0-0.019,0c-0.005,0-0.015-0.002-0.019,0c-0.002,0,0.002,0.016,0,0.018
	c-0.002,0.001-0.015-0.001-0.018,0c-0.006,0-0.014,0-0.019,0c-0.006,0-0.015-0.001-0.019,0c-0.002,0,0.001,0.016,0,0.019
	c-0.003,0.001-0.016-0.002-0.019,0c-0.006,0-0.014,0-0.019,0s-0.013-0.002-0.019,0c-0.002,0,0.002,0.016,0,0.018
	s-0.015-0.001-0.019,0c-0.005,0.001-0.012,0-0.018,0s-0.014-0.002-0.019,0c-0.004,0-0.016-0.003-0.019,0
	c-0.003,0.002,0.003,0.015,0,0.018c-0.004,0.002-0.015-0.001-0.019,0c-0.005,0-0.013,0-0.019,0s-0.012,0-0.019,0
	c-0.006,0-0.012-0.001-0.018,0c-0.006,0-0.013,0-0.019,0c-0.002,0-0.018-0.002-0.018,0c-0.004,0.004,0.002,0.015,0,0.018
	c-0.147,0-0.295,0-0.441,0c-0.142,0-0.282,0-0.423,0s-0.282,0-0.423,0c-0.036,0-0.073,0-0.109,0c-0.019,0-0.037,0-0.056,0
	c-0.018,0-0.036,0-0.055,0c-0.037,0-0.074,0-0.11,0c-0.019,0-0.037,0-0.056,0c-0.012,0-0.024,0-0.036,0c-0.142,0-0.282,0-0.423,0
	c-0.019,0-0.037,0-0.056,0s-0.036,0-0.055,0c-0.018,0-0.036,0-0.055,0s-0.037,0-0.055,0c-0.037,0-0.074,0-0.111,0
	c-0.019,0-0.036,0-0.055,0c-0.012,0-0.024,0-0.036,0c-0.142,0-0.282,0-0.423,0c-0.037,0-0.074,0-0.11,0c-0.019,0-0.036,0-0.055,0
	s-0.037,0-0.056,0c-0.036,0-0.073,0-0.11,0c-0.019,0-0.037,0-0.055,0c-0.012,0-0.024,0-0.037,0c-0.146,0-0.293,0-0.44,0
	c-0.141,0-0.281,0-0.423,0c-0.141,0-0.281,0-0.423,0c-0.018,0-0.036,0-0.055,0s-0.037,0-0.056,0c-0.018,0-0.036,0-0.055,0
	c-0.018,0-0.036,0-0.055,0c-0.037,0-0.074,0-0.11,0c-0.019,0-0.037,0-0.056,0c-0.012,0-0.024,0-0.036,0c-0.142,0-0.282,0-0.423,0
	c-0.037,0-0.073,0-0.11,0c-0.019,0-0.036,0-0.055,0s-0.036,0-0.055,0c-0.037,0-0.074,0-0.11,0c-0.019,0-0.037,0-0.055,0
	c-0.013,0-0.025,0-0.037,0c-0.141,0-0.282,0-0.422,0c-0.037,0-0.074,0-0.11,0c-0.037,0-0.074,0-0.11,0c-0.037,0-0.074,0-0.111,0
	c-0.018,0-0.037,0-0.054,0c-0.013,0-0.025,0-0.037,0c-0.147,0-0.294,0-0.441,0c-0.037,0-0.074,0-0.11,0c-0.019,0-0.037,0-0.056,0
	s-0.037,0-0.055,0c-0.037,0-0.073,0-0.11,0c-0.018,0-0.037,0-0.055,0c-0.012,0-0.024,0-0.036,0c-0.037,0-0.074,0-0.11,0
	c-0.019,0-0.037,0-0.055,0s-0.037,0-0.055,0c-0.037,0-0.073,0-0.11,0c-0.018,0-0.037,0-0.055,0c-0.013,0-0.025,0-0.037,0
	c-0.037,0-0.073,0-0.11,0c-0.019,0-0.037,0-0.056,0c-0.018,0-0.037,0-0.055,0c-0.037,0-0.074,0-0.11,0c-0.019,0-0.037,0-0.055,0
	c-0.013,0-0.025,0-0.037,0c-0.141,0-0.282,0-0.422,0c-0.141,0-0.282,0-0.423,0c-0.141,0-0.282,0-0.422,0s-0.282,0-0.422,0
	c-0.147,0-0.294,0-0.441,0c-0.141,0-0.282,0-0.422,0c-0.019,0-0.037,0-0.055,0c-0.019,0-0.037,0-0.055,0c-0.037,0-0.074,0-0.11,0
	s-0.073,0-0.11,0c-0.018,0-0.037,0-0.055,0c-0.013,0-0.025,0-0.037,0c-0.037,0-0.074,0-0.11,0c-0.019,0-0.037,0-0.055,0
	c-0.019,0-0.037,0-0.055,0c-0.037,0-0.073,0-0.11,0c-0.019,0-0.037,0-0.055,0c-0.013,0-0.025,0-0.037,0c-0.037,0-0.074,0-0.11,0
	c-0.019,0-0.037,0-0.055,0c-0.019,0-0.037,0-0.056,0c-0.036,0-0.073,0-0.11,0c-0.019,0-0.037,0-0.055,0c-0.012,0-0.024,0-0.037,0
	c-0.019,0-0.037,0-0.055,0s-0.037,0-0.055,0s-0.037,0-0.055,0c-0.018,0-0.037,0-0.055,0c-0.037,0-0.073,0-0.11,0
	c-0.018,0-0.037,0-0.055,0c-0.012,0-0.024,0-0.037,0c-0.141,0-0.282,0-0.422,0c-0.019,0-0.037,0-0.056,0c-0.018,0-0.037,0-0.055,0
	c-0.018,0-0.037,0-0.055,0c-0.019,0-0.037,0-0.055,0c-0.037,0-0.074,0-0.11,0c-0.019,0-0.037,0-0.055,0c-0.012,0-0.024,0-0.037,0
	c-0.002-0.003,0.003-0.014,0-0.018c-0.001-0.002-0.016,0-0.019,0c-0.006,0-0.012,0-0.018,0c-0.025,0-0.049,0-0.074,0
	c-0.002-0.004,0.003-0.015,0-0.018c-0.002-0.003-0.015,0-0.018,0c-0.005-0.001-0.013,0-0.019,0s-0.013,0.001-0.018,0
	c-0.003-0.001-0.016,0.002-0.019,0c-0.002-0.003,0.002-0.018,0-0.018c-0.004-0.003-0.014,0-0.019,0s-0.013,0.001-0.019,0
	c-0.003-0.002-0.016,0.001-0.019,0c-0.001-0.004,0.002-0.019,0-0.019c-0.003-0.002-0.014,0-0.018,0s-0.014,0.001-0.018,0
	c-0.003-0.001-0.016,0.002-0.019,0c-0.002-0.003,0.002-0.017,0-0.018c-0.003-0.003-0.014,0-0.018,0c-0.003,0-0.017,0.001-0.019,0
	c-0.002-0.003,0.002-0.019,0-0.019c-0.004-0.002-0.014,0-0.019,0c-0.005,0-0.013,0.001-0.019,0c-0.003-0.002-0.016,0.001-0.018,0
	c-0.002-0.002,0.002-0.017,0-0.018c-0.004-0.002-0.014,0-0.019,0c-0.004,0-0.014,0.001-0.018,0c-0.002-0.002,0.002-0.017,0-0.019
	c-0.003-0.003-0.015,0.002-0.019,0c-0.003-0.002-0.016,0.003-0.018,0c-0.002-0.002,0.002-0.017,0-0.019
	c-0.004-0.001-0.014,0-0.019,0s-0.015,0.002-0.019,0c-0.002-0.001,0.002-0.015,0-0.018c-0.003-0.003-0.015,0.003-0.019,0
	s-0.014,0.003-0.018,0c-0.003-0.001,0.002-0.016,0-0.019c-0.003-0.003-0.015,0.003-0.018,0c-0.003-0.001,0.001-0.015,0-0.018
	c-0.001-0.001-0.017,0-0.019,0c-0.003,0-0.016,0.002-0.019,0c-0.003-0.001,0.002-0.015,0-0.019c-0.003-0.003-0.015,0.004-0.018,0
	c-0.003-0.003,0.003-0.015,0-0.018c-0.003-0.004-0.015,0.003-0.019,0c-0.004-0.003-0.014,0.003-0.019,0
	c-0.003-0.002,0.003-0.015,0-0.018s-0.015,0.004-0.019,0c-0.003-0.003,0.003-0.016,0-0.018c-0.003-0.004-0.015,0.003-0.018,0
	c-0.003-0.004,0.003-0.016,0-0.019c-0.003-0.004-0.015,0.002-0.018,0c-0.004-0.004-0.015,0.002-0.019,0
	c-0.003-0.003,0.002-0.016,0-0.018c-0.003-0.003-0.015,0.003-0.019,0c-0.003-0.003,0.003-0.016,0-0.019s-0.015,0.004-0.018,0
	c-0.003-0.003,0.003-0.015,0-0.017c-0.003-0.003-0.016,0.002-0.019,0c-0.003-0.003,0.002-0.016,0-0.019
	c-0.002-0.003-0.016,0.002-0.019,0c-0.003-0.003,0.003-0.016,0-0.019c-0.002-0.003-0.015,0.003-0.019,0
	c-0.003-0.003,0.003-0.015,0-0.018c-0.003-0.003-0.015,0.003-0.018,0s0.003-0.016,0-0.019s-0.015,0.003-0.018,0
	c-0.003-0.003,0.003-0.016,0-0.019c-0.003-0.002-0.016,0.003-0.019,0c-0.003-0.002,0.003-0.015,0-0.018
	c-0.003-0.003-0.016,0.003-0.019,0s0.003-0.016,0-0.019s-0.015,0.003-0.018,0c-0.003-0.003,0.002-0.014,0-0.018
	c-0.003-0.003-0.015,0.004-0.019,0c-0.003-0.001,0.003-0.015,0-0.019c-0.002-0.002-0.016,0.004-0.019,0
	c-0.002-0.001,0-0.014,0-0.018s0.002-0.014,0-0.018c0-0.002-0.017,0.003-0.019,0c-0.003-0.003,0.003-0.015,0-0.018
	c-0.002-0.004-0.015,0.002-0.018,0c-0.003-0.004,0.003-0.016,0-0.019s-0.015,0.003-0.018,0c-0.003-0.003,0.002-0.014,0-0.018
	c-0.003-0.004,0.003-0.015,0-0.018c-0.003-0.004-0.016,0.003-0.019,0c-0.003-0.004,0.003-0.015,0-0.018
	c-0.002-0.003-0.017,0.003-0.019,0s0-0.016,0-0.019c0-0.003,0.002-0.018,0-0.019c-0.002-0.002-0.017,0.001-0.019,0
	c-0.001-0.005,0-0.013,0-0.018s0.002-0.015,0-0.019c0-0.002-0.016,0.002-0.018,0c-0.003-0.003,0.002-0.015,0-0.019
	c-0.001-0.002-0.016,0.003-0.019,0c-0.003-0.002,0.002-0.014,0-0.018c-0.002-0.003,0.003-0.016,0-0.019
	c-0.002-0.001-0.017,0.003-0.019,0c-0.001-0.003,0-0.013,0-0.018c0-0.004,0.002-0.014,0-0.018c0-0.002-0.016,0.002-0.018,0
	c-0.003-0.003,0.002-0.015,0-0.019c-0.001-0.004,0-0.014,0-0.018c0-0.005,0.002-0.014,0-0.018c0-0.003-0.017,0-0.018,0
	c-0.002-0.001,0-0.017,0-0.018c0-0.005,0.001-0.015,0-0.019c-0.001-0.003-0.017,0.002-0.019,0c-0.001-0.001,0-0.017,0-0.019
	c0-0.005,0.001-0.013,0-0.017c-0.002-0.005,0.002-0.015,0-0.019c-0.002-0.003-0.016,0.002-0.019,0c-0.002-0.003,0.001-0.016,0-0.019
	c-0.001-0.005,0-0.013,0-0.018c0-0.003,0.002-0.017,0-0.019c-0.001-0.001-0.018,0.002-0.019,0c-0.001-0.005,0-0.013,0-0.018
	c0-0.006,0-0.012,0-0.019c0-0.006,0-0.012,0-0.019c0-0.005,0.001-0.011,0-0.018c0-0.001-0.017,0.002-0.018,0
	c-0.001,0,0-0.015,0-0.018c0-0.005,0.001-0.013,0-0.019c-0.001-0.004,0-0.012,0-0.017c0-0.006,0.001-0.014,0-0.019
	c0-0.004,0.002-0.016,0-0.018c-0.001-0.001-0.018,0.001-0.019,0c-0.001-0.006,0-0.014,0-0.019c0-0.013,0-0.024,0-0.035
	c0-0.019,0-0.037,0-0.055c0-0.006,0.001-0.013,0-0.019c0-0.004,0.002-0.015,0-0.018c-0.002-0.003-0.016,0.003-0.018,0
	c-0.002-0.002,0-0.016,0-0.019c-0.001-0.004,0-0.012,0-0.019c0-0.006,0-0.011,0-0.018c0-0.006,0-0.012,0-0.018
	c0-0.007,0-0.013,0-0.019c0-0.005,0-0.011,0-0.017c0-0.013,0-0.025,0-0.036c0-0.024,0-0.048,0-0.072c0-0.019,0-0.036,0-0.055
	c0-0.023,0-0.048,0-0.071c0-0.019,0-0.036,0-0.054c0-0.025,0-0.049,0-0.072c0-0.018,0-0.036,0-0.054c0-0.024,0-0.048,0-0.073
	c0-0.019,0-0.035,0-0.054c0-0.024,0-0.048,0-0.071c0-0.019,0-0.036,0-0.054c0-0.024,0-0.049,0-0.073c0-0.018,0-0.036,0-0.054
	c0-0.024,0-0.048,0-0.072c0-0.018,0-0.035,0-0.054c0-0.023,0-0.048,0-0.071c0-0.085,0-0.169,0-0.252c0-0.084,0-0.17,0-0.253
	c0-0.168,0-0.336,0-0.504c0-0.018,0-0.035,0-0.054c0-0.024,0-0.048,0-0.072c0-0.018,0-0.036,0-0.054c0-0.024,0-0.048,0-0.072
	c0-0.084,0-0.167,0-0.252c0-0.084,0-0.167,0-0.252s0-0.168,0-0.252c0-0.019,0-0.036,0-0.054c0-0.024,0-0.049,0-0.072
	c0-0.018,0-0.036,0-0.054c0-0.024,0-0.048,0-0.072c0-0.018,0-0.036,0-0.055c0-0.023,0-0.048,0-0.071c0-0.019,0-0.036,0-0.055
	c0-0.022,0-0.048,0-0.071c0-0.168,0-0.335,0-0.505c0-0.167,0-0.335,0-0.503s0-0.337,0-0.504c0-0.168,0-0.337,0-0.505
	c0-0.083,0-0.168,0-0.252c0-0.083,0-0.167,0-0.252c0-0.168,0-0.335,0-0.504c0-0.019,0-0.036,0-0.055c0-0.024,0-0.047,0-0.072
	c0-0.017,0-0.035,0-0.052c0-0.025,0-0.049,0-0.073c0-0.019,0-0.037,0-0.055c0-0.024,0-0.048,0-0.071c0-0.018,0-0.036,0-0.054
	c0-0.024,0-0.048,0-0.072c0-0.084,0-0.168,0-0.252c0-0.084,0-0.169,0-0.253c0-0.083,0-0.167,0-0.251c0-0.083,0-0.168,0-0.252
	c0-0.083,0-0.167,0-0.252c0-0.083,0-0.167,0-0.251s0-0.167,0-0.252c0-0.083,0-0.168,0-0.252c0-0.083,0-0.167,0-0.251
	c0-0.084,0-0.168,0-0.252c0-0.168,0-0.336,0-0.505c0-0.083,0-0.167,0-0.251c0-0.084,0-0.168,0-0.252c0-0.167,0-0.335,0-0.503
	s0-0.336,0-0.504c0-0.084,0-0.168,0-0.252c0-0.084,0-0.168,0-0.252c0-0.018,0-0.036,0-0.054c0-0.023,0-0.048,0-0.072
	c0-0.018,0-0.036,0-0.054c0-0.024,0-0.048,0-0.072c0-0.019,0-0.037,0-0.054c0-0.024,0-0.048,0-0.072c0-0.018,0-0.036,0-0.054
	c0-0.024,0-0.048,0-0.072c0-0.018,0-0.036,0-0.054c0-0.024,0-0.048,0-0.072c0-0.018,0-0.036,0-0.053c0-0.024,0-0.048,0-0.072
	c0-0.018,0-0.036,0-0.054c0-0.024,0-0.048,0-0.072c0-0.018,0-0.036,0-0.054c0-0.024,0-0.048,0-0.072c0-0.084,0-0.168,0-0.252
	c0-0.084,0-0.168,0-0.252c0-0.018,0-0.036,0-0.054c0-0.024,0-0.048,0-0.072c0-0.018,0-0.036,0-0.054c0-0.024,0-0.048,0-0.072
	c0-0.018,0-0.035,0-0.054c0-0.024,0-0.048,0-0.072c0-0.018,0-0.036,0-0.053c0-0.024,0-0.048,0-0.073c0-0.018,0-0.036,0-0.054
	c0-0.024,0-0.048,0-0.072c0-0.018,0-0.036,0-0.054c0-0.024,0-0.048,0-0.072c0-0.018,0-0.036,0-0.054c0-0.024,0-0.048,0-0.072
	c0-0.019,0-0.037,0-0.054c0-0.024,0-0.048,0-0.072c0-0.018,0-0.036,0-0.054c0-0.023,0-0.048,0-0.072c0-0.018,0-0.036,0-0.054
	c0-0.024,0-0.048,0-0.072c0-0.018,0-0.036,0-0.054c0-0.024,0-0.048,0-0.072c0-0.018,0-0.036,0-0.054c0-0.018,0-0.037,0-0.055
	c0-0.005,0-0.012,0-0.018s0-0.012,0-0.018c0-0.012,0-0.024,0-0.036c0-0.018,0-0.036,0-0.054c0-0.006,0-0.012,0-0.019
	c0-0.005,0-0.012,0-0.018s0-0.012,0-0.018s-0.001-0.013,0-0.018c0-0.001,0.017,0.001,0.018,0c0.002-0.002,0-0.015,0-0.019
	c0.001-0.004,0-0.013,0-0.018c0-0.006,0-0.012,0-0.018c0.001-0.006,0-0.013,0-0.018c0-0.006,0-0.012,0-0.019
	c0-0.005,0-0.012,0-0.018c0.001-0.006,0-0.012,0-0.018c0-0.005-0.002-0.015,0-0.018c0.001-0.002,0.017,0.002,0.019,0
	c0.002-0.002,0-0.016,0-0.019c0.001-0.005,0-0.012,0-0.018s-0.001-0.013,0-0.018c0.001-0.003-0.002-0.016,0-0.018
	c0.001-0.001,0.018,0.001,0.018,0c0.001-0.005,0-0.013,0-0.019c0-0.005,0-0.012,0-0.018s0-0.012,0-0.018
	c0-0.005-0.001-0.014,0-0.018c0.001-0.001,0.017,0.001,0.019,0c0.001-0.001,0-0.016,0-0.019c0-0.004-0.001-0.013,0-0.018
	c0.001-0.003-0.002-0.015,0-0.018c0.002-0.002,0.017,0.002,0.019,0c0.001-0.004,0-0.014,0-0.018c0-0.005-0.001-0.014,0-0.019
	c0.001-0.003-0.003-0.015,0-0.018c0.002-0.001,0.017,0.002,0.019,0c0.001-0.004,0-0.014,0-0.018c0-0.005-0.002-0.014,0-0.018
	c0-0.002,0.017,0.002,0.018,0c0.002-0.002-0.001-0.015,0-0.019c0.001-0.004,0-0.013,0-0.018c0-0.004-0.001-0.014,0-0.018
	c0.001-0.002,0.017,0.001,0.018,0c0.002-0.001,0-0.016,0-0.018c0-0.004-0.001-0.015,0-0.018c0.002-0.002,0.017,0.002,0.019,0
	c0.003-0.003-0.002-0.014,0-0.018c0.002-0.003-0.003-0.015,0-0.018c0.002-0.002,0.017,0.002,0.019,0
	c0.003-0.005-0.003-0.014,0-0.018c0.002-0.003,0.016,0.002,0.018,0c0.003-0.003-0.001-0.015,0-0.018
	c0.002-0.003-0.002-0.015,0-0.019c0.002-0.002,0.018,0.002,0.019,0c0.002-0.004,0-0.013,0-0.018c0-0.003-0.001-0.015,0-0.018
	c0.002-0.002,0.016,0.002,0.019,0s-0.003-0.016,0-0.018c0.002-0.003,0.016,0.002,0.019,0c0.001-0.002,0-0.015,0-0.018
	c0-0.005-0.002-0.014,0-0.018c0-0.002,0.016,0.002,0.018,0c0.003-0.003-0.002-0.015,0-0.018c0.002-0.003,0.016,0.002,0.018,0
	c0.003-0.002-0.002-0.016,0-0.018c0.003-0.002,0.017,0.002,0.019,0s0-0.015,0-0.019c0-0.004-0.002-0.014,0-0.018
	c0.001-0.002,0.017,0.002,0.019,0c0.003-0.003-0.003-0.015,0-0.018c0.002-0.003,0.015,0.002,0.019,0
	c0.002-0.002-0.003-0.016,0-0.018c0.003-0.003,0.015,0.002,0.018,0c0.003-0.003-0.003-0.016,0-0.018
	c0.003-0.003,0.015,0.003,0.019,0c0.003-0.003-0.003-0.015,0-0.018c0.003-0.003,0.015,0.003,0.019,0
	c0.003-0.003-0.003-0.014,0-0.018c0.002-0.003,0.016,0.002,0.018,0c0.003-0.003-0.003-0.015,0-0.018s0.015,0.002,0.018,0
	c0.003-0.003-0.003-0.015,0-0.019c0.003-0.002,0.016,0.003,0.019,0c0.003-0.002-0.003-0.015,0-0.018
	c0.003-0.003,0.015,0.002,0.019,0c0.003-0.002-0.002-0.015,0-0.018c0.003-0.003,0.015,0.003,0.019,0
	c0.003-0.002-0.003-0.015,0-0.018c0.003-0.003,0.015,0.003,0.018,0c0.003-0.003-0.003-0.015,0-0.018
	c0.003-0.003,0.015,0.002,0.019,0c0.003-0.003-0.003-0.016,0-0.018c0.003-0.003,0.015,0.003,0.019,0
	c0.003-0.003-0.003-0.015,0-0.018c0.003-0.003,0.014,0.002,0.018,0c0.003-0.003,0.015,0.003,0.018,0
	c0.003-0.003-0.003-0.015,0-0.018c0.003-0.003,0.016,0.003,0.019,0c0.003-0.002-0.003-0.016,0-0.018s0.015,0,0.019,0
	c0.004,0,0.014,0.001,0.019,0c0.002-0.001-0.001-0.016,0-0.018c0.002-0.003,0.016,0.002,0.018,0s-0.003-0.016,0-0.018
	c0.003-0.001,0.015,0,0.019,0c0.002,0,0.017,0.002,0.019,0s-0.003-0.016,0-0.018c0.004-0.003,0.014,0.003,0.018,0
	c0.003-0.002-0.002-0.016,0-0.019c0.003-0.002,0.015,0.002,0.018,0c0.005-0.002,0.015,0.003,0.019,0
	c0.003-0.001-0.002-0.015,0-0.018c0.003-0.003,0.015,0.002,0.019,0c0.004-0.003,0.014,0.002,0.019,0
	c0.002-0.002-0.003-0.016,0-0.018c0.002-0.003,0.015,0.002,0.018,0c0.004-0.002,0.014,0.002,0.019,0
	c0.003-0.002-0.003-0.015,0-0.018c0.003-0.002,0.015,0.002,0.018,0c0.005-0.002,0.014,0.003,0.019,0
	c0.003-0.002-0.002-0.016,0-0.018c0.003-0.002,0.015,0.001,0.018,0c0.005-0.002,0.014,0.003,0.019,0
	c0.003-0.002-0.002-0.016,0-0.018c0.003-0.002,0.015,0.001,0.019,0c0.004-0.002,0.014,0,0.019,0c0.002,0,0.017,0.001,0.018,0
	c0.002-0.002-0.002-0.017,0-0.018c0.004-0.001,0.013,0,0.019,0c0.006,0,0.012,0,0.018,0c0.005,0,0.013,0.002,0.018,0
	c0.002,0-0.001-0.016,0-0.018c0.002-0.001,0.017,0,0.019,0c0.005,0,0.014,0.001,0.019,0s0.015,0.002,0.019,0
	c0.002-0.002-0.003-0.016,0-0.019c0.002-0.001,0.015,0,0.019,0c0.005-0.001,0.013,0,0.018,0c0.006,0,0.012,0,0.019,0
	c0.005,0,0.013,0.001,0.018,0c0.001,0-0.001-0.017,0-0.018c0.001-0.001,0.017,0,0.019,0c0.006,0,0.012,0,0.018,0
	c0.006-0.001,0.013,0,0.019,0c0.006,0,0.012,0,0.019,0c0.006,0,0.012,0,0.018,0c0.003,0,0.017,0.002,0.019,0
	C1.241,0.015,1.235,0.004,1.238,0z M10.276,1.152c-0.005-0.002-0.015,0.002-0.019,0c-0.004-0.002,0.002-0.016,0-0.019
	c-0.003-0.002-0.016,0-0.019,0c-0.006-0.001-0.014,0-0.019,0c-0.007,0-0.013,0-0.019,0s-0.013,0-0.019,0s-0.013,0-0.019,0
	s-0.013,0-0.019,0c-0.018,0-0.036,0-0.055,0s-0.037,0-0.056,0c-0.006,0-0.012,0-0.018,0c-0.007,0-0.012,0-0.019,0
	c-0.012,0-0.024,0-0.036,0c-0.025,0-0.05,0-0.074,0c-0.049,0-0.098,0-0.146,0c-0.044,0-0.086,0-0.129,0c-0.049,0-0.098,0-0.147,0
	c-0.091,0-0.184,0-0.275,0c-0.184,0-0.367,0-0.55,0c-0.19,0-0.38,0-0.569,0c-0.184,0-0.368,0-0.552,0c-0.189,0-0.379,0-0.569,0
	c-0.092,0-0.184,0-0.275,0c-0.092,0-0.184,0-0.276,0c-0.092,0-0.183,0-0.275,0c-0.098,0-0.196,0-0.294,0c-0.092,0-0.184,0-0.275,0
	s-0.184,0-0.276,0c-0.042,0-0.085,0-0.128,0c-0.049,0-0.098,0-0.147,0c-0.092,0-0.184,0-0.275,0c-0.043,0-0.086,0-0.129,0
	c-0.049,0-0.098,0-0.147,0c-0.091,0-0.184,0-0.275,0c-0.091,0-0.184,0-0.275,0c-0.098,0-0.196,0-0.294,0c-0.019,0-0.037,0-0.055,0
	c-0.024,0-0.049,0-0.073,0c-0.025,0-0.049,0-0.074,0c-0.024,0-0.049,0-0.073,0c-0.019,0-0.037,0-0.056,0c-0.024,0-0.049,0-0.073,0
	s-0.049,0-0.073,0s-0.049,0-0.073,0c-0.043,0-0.086,0-0.129,0c-0.049,0-0.098,0-0.147,0s-0.098,0-0.147,0c-0.049,0-0.098,0-0.147,0
	c-0.018,0-0.037,0-0.055,0c-0.024,0-0.049,0-0.073,0c-0.025,0-0.049,0-0.074,0c-0.024,0-0.049,0-0.073,0c-0.043,0-0.086,0-0.128,0
	c-0.049,0-0.098,0-0.147,0c-0.043,0-0.086,0-0.128,0c-0.049,0-0.098,0-0.147,0c-0.025,0-0.049,0-0.074,0s-0.049,0-0.074,0
	s-0.049,0-0.073,0c-0.019,0-0.037,0-0.055,0c-0.005,0-0.013-0.001-0.019,0c-0.003,0-0.016-0.002-0.018,0
	c-0.002,0.002,0.002,0.017,0,0.019c-0.004,0.002-0.014,0-0.019,0s-0.015-0.002-0.019,0c-0.004,0.002-0.014-0.003-0.019,0
	c-0.002,0.001,0.002,0.015,0,0.018c-0.002,0.002-0.015-0.003-0.018,0c-0.002,0.002,0.003,0.016,0,0.018
	c-0.002,0.002-0.015,0-0.018,0c-0.003,0-0.017-0.002-0.019,0c-0.003,0.003,0.003,0.015,0,0.018c-0.003,0.003-0.015-0.002-0.019,0
	c-0.001,0.001,0,0.016,0,0.019c0,0.003,0.002,0.016,0,0.018c-0.002,0.003-0.016-0.002-0.018,0c-0.003,0.003,0.003,0.015,0,0.018
	c-0.003,0.002-0.016-0.003-0.019,0c-0.002,0.002,0.002,0.014,0,0.018c-0.002,0.004,0.003,0.014,0,0.019
	c-0.002,0.002-0.016-0.003-0.019,0c-0.002,0.002,0.001,0.014,0,0.018s0,0.013,0,0.018s0.002,0.014,0,0.018
	c0,0.002-0.016-0.002-0.018,0c-0.002,0.002,0,0.016,0,0.019c-0.001,0.005,0,0.012,0,0.018c0,0.012,0,0.024,0,0.036
	c0,0.019,0,0.036,0,0.054c0,0.006,0,0.012,0,0.018c0,0.006,0,0.013,0,0.018c0,0.012,0,0.024,0,0.037c0,0.023,0,0.048,0,0.071
	c0,0.018,0,0.036,0,0.055c0,0.024,0,0.048,0,0.072c0,0.018,0,0.036,0,0.054c0,0.024,0,0.048,0,0.072c0,0.018,0,0.036,0,0.054
	c0,0.024,0,0.048,0,0.072c0,0.018,0,0.036,0,0.054c0,0.018,0,0.036,0,0.054c0,0.018,0,0.036,0,0.054c0,0.024,0,0.048,0,0.072
	c0,0.042,0,0.084,0,0.126c0,0.042,0,0.084,0,0.126c0,0.042,0,0.084,0,0.126c0,0.042,0,0.084,0,0.126c0,0.042,0,0.084,0,0.126
	s0,0.083,0,0.126c0,0.018,0,0.036,0,0.054c0,0.018,0,0.036,0,0.054s0,0.036,0,0.054c0,0.024,0,0.048,0,0.072
	c0,0.042,0,0.084,0,0.126s0,0.084,0,0.126c0,0.018,0,0.036,0,0.054c0,0.024,0,0.048,0,0.072c0,0.018,0,0.036,0,0.054
	c0,0.024,0,0.048,0,0.072c0,0.042,0,0.084,0,0.126s0,0.084,0,0.126c0,0.018,0,0.036,0,0.054c0,0.018,0,0.036,0,0.054
	c0,0.019,0,0.036,0,0.054c0,0.024,0,0.048,0,0.072c0,0.042,0,0.084,0,0.126c0,0.042,0,0.084,0,0.126c0,0.042,0,0.084,0,0.125
	c0,0.042,0,0.084,0,0.126c0,0.042,0,0.084,0,0.126c0,0.042,0,0.083,0,0.125c0,0.019,0,0.037,0,0.054c0,0.018,0,0.037,0,0.055
	c0,0.018,0,0.035,0,0.054c0,0.024,0,0.048,0,0.072c0,0.042,0,0.084,0,0.126s0,0.084,0,0.126c0,0.042,0,0.084,0,0.126
	s0,0.084,0,0.126c0,0.019,0,0.036,0,0.054c0,0.023,0,0.048,0,0.072c0,0.018,0,0.036,0,0.054c0,0.024,0,0.048,0,0.072
	c0,0.162,0,0.324,0,0.486c0,0.168,0,0.336,0,0.504c0,0.162,0,0.324,0,0.486c0,0.167,0,0.336,0,0.504c0,0.017,0,0.035,0,0.053
	c0,0.019,0,0.037,0,0.054c0,0.018,0,0.037,0,0.055c0,0.024,0,0.048,0,0.072c0,0.042,0,0.083,0,0.125s0,0.084,0,0.126
	c0,0.084,0,0.167,0,0.252c0,0.083,0,0.167,0,0.251c0,0.018,0,0.036,0,0.054s0,0.036,0,0.053c0,0.019,0,0.037,0,0.055
	c0,0.023,0,0.047,0,0.071c0,0.018,0,0.037,0,0.055c0,0.024,0,0.048,0,0.072c0,0.017,0,0.035,0,0.054c0,0.024,0,0.047,0,0.072
	c0,0.084,0,0.169,0,0.252s0,0.168,0,0.251c0,0.019,0,0.037,0,0.054c0,0.018,0,0.037,0,0.054c0,0.019,0,0.037,0,0.055
	c0,0.024,0,0.048,0,0.073c0,0.041,0,0.083,0,0.124c0,0.042,0,0.085,0,0.127c0,0.084,0,0.168,0,0.252s0,0.169,0,0.252
	c0,0.162,0,0.324,0,0.486c0,0.168,0,0.336,0,0.503c0,0.019,0,0.036,0,0.055s0,0.035,0,0.054c0,0.018,0,0.036,0,0.055
	c0,0.023,0,0.048,0,0.071c0,0.043,0,0.084,0,0.127c0,0.041,0,0.083,0,0.126c0,0.084,0,0.167,0,0.252c0,0.084,0,0.167,0,0.251
	c0,0.019,0,0.037,0,0.055c0,0.019,0,0.035,0,0.054s0,0.036,0,0.055c0,0.023,0,0.048,0,0.07c0,0.019,0,0.037,0,0.055
	c0,0.024,0,0.048,0,0.073c0,0.017,0,0.035,0,0.054c0,0.023,0,0.048,0,0.071c0,0.084,0,0.169,0,0.253c0,0.083,0,0.167,0,0.252
	c0,0.018,0,0.036,0,0.053c0,0.019,0,0.037,0,0.055s0,0.036,0,0.054c0,0.024,0,0.048,0,0.072c0,0.043,0,0.085,0,0.126
	s0,0.083,0,0.126c0,0.018,0,0.036,0,0.054c0,0.025,0,0.049,0,0.072c0,0.018,0,0.036,0,0.055c0,0.023,0,0.048,0,0.071
	c0,0.042,0,0.084,0,0.126s0,0.085,0,0.126c0,0.018,0,0.036,0,0.055c0,0.018,0,0.035,0,0.054c0,0.018,0,0.036,0,0.054
	c0,0.024,0,0.048,0,0.072c0,0.042,0,0.083,0,0.125c0,0.043,0,0.085,0,0.128c0,0.018,0,0.035,0,0.053c0,0.023,0,0.047,0,0.072
	c0,0.019,0,0.035,0,0.054c0,0.024,0,0.049,0,0.072c0,0.042,0,0.084,0,0.126s0,0.084,0,0.126c0,0.019,0,0.036,0,0.055
	c0,0.023,0,0.047,0,0.071c0,0.019,0,0.037,0,0.054c0,0.024,0,0.048,0,0.072c0,0.042,0,0.085,0,0.126c0,0.042,0,0.083,0,0.125
	c0,0.019,0,0.037,0,0.055c0,0.024,0,0.049,0,0.073c0,0.018,0,0.035,0,0.054c0,0.018,0,0.036,0,0.053c0,0.006-0.001,0.013,0,0.019
	s0,0.012,0,0.018c0,0.004-0.002,0.017,0,0.018c0.001,0.002,0.018-0.001,0.018,0c0.001,0.005,0,0.015,0,0.019
	c0,0.006-0.001,0.014,0,0.019c0.001,0.003-0.002,0.016,0,0.018c0.002,0.002,0.018-0.002,0.019,0c0.002,0.004,0,0.014,0,0.019
	c0,0.003-0.001,0.016,0,0.018c0.002,0.002,0.017-0.002,0.019,0c0.002,0.003-0.003,0.016,0,0.019c0.002,0.001,0.017-0.003,0.018,0
	c0.002,0.004,0,0.014,0,0.019c0,0.002-0.001,0.015,0,0.018c0.002,0.001,0.016,0,0.019,0c0.004,0,0.015-0.003,0.019,0
	c0.002,0-0.002,0.015,0,0.018s0.016-0.003,0.018,0c0.002,0.002-0.002,0.017,0,0.019c0.003,0.002,0.015-0.001,0.018,0
	c0.003,0,0.017-0.002,0.019,0c0.002,0.002-0.002,0.017,0,0.018c0.004,0.002,0.014-0.001,0.019,0c0.003,0,0.017-0.003,0.019,0
	c0.003,0.003-0.003,0.015,0,0.019c0.012,0,0.024,0,0.037,0c0.019,0,0.037,0,0.055,0c0.018,0,0.037,0,0.055,0
	c0.018,0,0.037,0,0.055,0c0.019,0,0.037,0,0.055,0c0.019,0,0.037,0,0.056,0c0.036,0,0.073,0,0.11,0c0.141,0,0.282,0,0.422,0
	c0.012,0,0.024,0,0.037,0c0.018,0,0.037,0,0.055,0c0.019,0,0.037,0,0.055,0c0.019,0,0.037,0,0.055,0s0.037,0,0.055,0
	s0.037,0,0.055,0c0.037,0,0.073,0,0.11,0c0.141,0,0.282,0,0.423,0c0.012,0,0.024,0,0.037,0c0.019,0,0.037,0,0.055,0
	c0.018,0,0.037,0,0.055,0c0.018,0,0.037,0,0.055,0c0.018,0,0.036,0,0.055,0s0.037,0,0.055,0c0.019,0,0.037,0,0.055,0
	c0.019,0,0.037,0,0.055,0c0.012,0,0.025,0,0.037,0c0.019,0,0.037,0,0.055,0c0.019,0,0.037,0,0.055,0s0.037,0,0.055,0
	c0.019,0,0.037,0,0.055,0c0.018,0,0.037,0,0.055,0c0.037,0,0.073,0,0.11,0c0.141,0,0.282,0,0.423,0c0.141,0,0.282,0,0.422,0
	s0.282,0,0.422,0c0.141,0,0.282,0,0.422,0c0.141,0,0.282,0,0.422,0c0.141,0,0.282,0,0.423,0c0.012,0,0.024,0,0.037,0
	c0.019,0,0.037,0,0.055,0c0.019,0,0.037,0,0.055,0c0.018,0,0.037,0,0.055,0s0.037,0,0.055,0c0.018,0,0.037,0,0.055,0
	c0.037,0,0.073,0,0.11,0c0.013,0,0.025,0,0.037,0c0.018,0,0.037,0,0.055,0c0.018,0,0.036,0,0.055,0s0.037,0,0.055,0
	c0.019,0,0.037,0,0.055,0c0.018,0,0.037,0,0.055,0c0.037,0,0.073,0,0.11,0c0.013,0,0.025,0,0.037,0c0.019,0,0.036,0,0.056,0
	c0.018,0,0.036,0,0.054,0c0.019,0,0.037,0,0.056,0s0.036,0,0.055,0s0.037,0,0.055,0c0.037,0,0.074,0,0.11,0c0.146,0,0.293,0,0.44,0
	c0.013,0,0.025,0,0.037,0c0.019,0,0.037,0,0.055,0c0.019,0,0.037,0,0.055,0c0.019,0,0.037,0,0.056,0c0.037,0,0.073,0,0.11,0
	c0.037,0,0.074,0,0.11,0c0.031,0,0.062,0,0.093,0c0.018,0,0.037,0,0.054,0c0.019,0,0.037,0,0.056,0s0.037,0,0.055,0s0.036,0,0.055,0
	c0.037,0,0.074,0,0.111,0c0.03,0,0.061,0,0.092,0c0.019,0,0.037,0,0.055,0c0.019,0,0.037,0,0.055,0c0.019,0,0.037,0,0.056,0
	s0.036,0,0.055,0s0.037,0,0.056,0s0.037,0,0.056,0c0.141,0,0.281,0,0.422,0c0.013,0,0.024,0,0.036,0c0.019,0,0.037,0,0.056,0
	s0.037,0,0.056,0c0.018,0,0.036,0,0.055,0c0.018,0,0.036,0,0.055,0s0.037,0,0.056,0c0.036,0,0.073,0,0.11,0c0.141,0,0.281,0,0.422,0
	c0.013,0,0.024,0,0.037,0c0.019,0,0.036,0,0.055,0s0.037,0,0.056,0s0.037,0,0.055,0c0.019,0,0.036,0,0.055,0s0.037,0,0.056,0
	c0.037,0,0.073,0,0.11,0c0.019,0,0.037,0,0.056,0c0.018,0,0.036,0,0.054,0c0.037,0,0.074,0,0.11,0c0.019,0,0.037,0,0.056,0
	s0.037,0,0.056,0c0.036,0,0.072,0,0.109,0c0.013,0,0.024,0,0.037,0c0.019,0,0.037,0,0.056,0c0.018,0,0.036,0,0.055,0
	s0.037,0,0.055,0c0.019,0,0.036,0,0.055,0s0.037,0,0.056,0s0.037,0,0.056,0c0.018,0,0.036,0,0.055,0c0.012,0,0.024,0,0.037,0
	c0.019,0,0.036,0,0.055,0c0.018,0,0.036,0,0.055,0s0.037,0,0.056,0s0.037,0,0.056,0c0.018,0,0.036,0,0.055,0s0.036,0,0.055,0
	s0.036,0,0.055,0c0.013,0,0.025,0,0.037,0c0.019,0,0.037,0,0.056,0s0.036,0,0.055,0s0.037,0,0.056,0c0.018,0,0.036,0,0.054,0
	c0.019,0,0.037,0,0.056,0c0.037,0,0.074,0,0.11,0c0.012,0,0.024,0,0.037,0c0.019,0,0.037,0,0.055,0c0.019,0,0.037,0,0.056,0
	c0.018,0,0.036,0,0.055,0s0.037,0,0.056,0s0.036,0,0.055,0c0.037,0,0.073,0,0.11,0c0.013,0,0.024,0,0.036,0c0.019,0,0.037,0,0.056,0
	s0.037,0,0.056,0c0.018,0,0.036,0,0.055,0s0.036,0,0.055,0s0.037,0,0.056,0c0.018,0,0.036,0,0.055,0s0.037,0,0.056,0
	c0.012,0,0.023,0,0.036,0c0.019,0,0.037,0,0.055,0c0.019,0,0.037,0,0.056,0s0.036,0,0.055,0s0.037,0,0.056,0s0.037,0,0.055,0
	c0.019,0,0.037,0,0.056,0c0.018,0,0.036,0,0.055,0c0.013,0,0.024,0,0.037,0c0.018,0,0.036,0,0.055,0s0.037,0,0.056,0
	s0.037,0,0.055,0c0.019,0,0.037,0,0.055,0c0.019,0,0.037,0,0.056,0c0.024,0,0.049,0,0.073,0c0.006,0,0.013,0,0.019,0
	s0.013,0,0.019,0c0.006-0.001,0.012,0,0.019,0c0.012,0,0.024,0,0.036,0c0.019,0,0.037,0,0.055,0c0.025,0,0.05,0,0.074,0
	c0.006,0,0.013,0,0.019,0s0.013,0,0.018,0c0.005-0.001,0.016,0.002,0.019,0c0.003-0.003-0.002-0.017,0-0.019
	c0.003-0.004,0.015,0.002,0.019,0c0.005-0.003,0.015,0.002,0.019,0c0.003-0.003-0.002-0.016,0-0.018
	c0.003-0.003,0.015,0.002,0.019,0c0.005-0.003,0.014,0.002,0.019,0c0.003-0.003-0.003-0.017,0-0.019
	c0.003-0.003,0.015,0.002,0.019,0c0.002-0.002-0.003-0.016,0-0.018c0-0.002,0.016,0,0.019,0c0.002,0,0.016,0.001,0.018,0
	c0.002-0.003,0-0.016,0-0.018c0-0.005-0.002-0.015,0-0.019c0.001-0.003,0.017,0.001,0.019,0c0.003-0.003-0.003-0.016,0-0.019
	c0.001-0.002,0.016,0.002,0.018,0c0.004-0.002-0.002-0.015,0-0.018c0.004-0.005-0.002-0.014,0-0.019
	c0.003-0.003,0.017,0.002,0.019,0c0.003-0.003,0-0.015,0-0.018c0.002-0.005,0-0.014,0-0.019c0-0.004-0.001-0.014,0-0.019
	c0.001-0.001,0.018,0.002,0.019,0c0.002,0,0-0.015,0-0.018c0-0.006-0.001-0.012,0-0.018s0-0.013,0-0.019s0-0.011,0-0.017
	c0-0.007,0-0.013,0-0.019c0-0.007,0-0.013,0-0.018c0-0.007-0.001-0.013,0-0.019s0-0.013,0-0.018c0-0.024,0-0.049,0-0.072
	c0-0.013,0-0.024,0-0.036c0-0.019,0-0.037,0-0.054c0-0.013,0-0.025,0-0.036c0-0.018,0-0.036,0-0.054c0-0.013,0-0.024,0-0.036
	c0-0.018,0-0.036,0-0.054c0-0.024,0-0.048,0-0.073c0-0.012,0-0.023,0-0.035c0-0.019,0-0.035,0-0.054c0-0.013,0-0.025,0-0.036
	c0-0.019,0-0.036,0-0.054c0-0.013,0-0.024,0-0.036c0-0.019,0-0.037,0-0.055c0-0.012,0-0.024,0-0.036c0-0.018,0-0.036,0-0.054
	c0-0.013,0-0.024,0-0.036c0-0.018,0-0.036,0-0.054c0-0.012,0-0.023,0-0.036c0-0.018,0-0.036,0-0.055c0-0.011,0-0.023,0-0.036
	c0-0.017,0-0.035,0-0.054c0-0.054,0-0.106,0-0.161c0-0.013,0-0.024,0-0.037c0-0.018,0-0.036,0-0.053c0-0.013,0-0.025,0-0.037
	c0-0.018,0-0.036,0-0.054c0-0.012,0-0.023,0-0.036c0-0.018,0-0.035,0-0.054c0-0.012,0-0.023,0-0.036c0-0.018,0-0.036,0-0.054
	c0-0.012,0-0.024,0-0.036c0-0.019,0-0.036,0-0.054c0-0.013,0-0.023,0-0.036c0-0.019,0-0.035,0-0.054c0-0.023,0-0.048,0-0.072
	c0-0.012,0-0.024,0-0.036c0-0.018,0-0.036,0-0.055c0-0.012,0-0.023,0-0.035c0-0.018,0-0.036,0-0.055c0-0.011,0-0.022,0-0.035
	c0-0.019,0-0.036,0-0.055c0-0.012,0-0.023,0-0.036c0-0.018,0-0.035,0-0.054c0-0.013,0-0.023,0-0.036c0-0.018,0-0.035,0-0.054
	c0-0.013,0-0.024,0-0.035c0-0.019,0-0.036,0-0.055c0-0.012,0-0.024,0-0.036c0-0.018,0-0.036,0-0.054c0-0.055,0-0.108,0-0.162
	c0-0.061,0-0.12,0-0.181c0-0.012,0-0.023,0-0.035c0-0.019,0-0.037,0-0.054c0-0.013,0-0.024,0-0.036c0-0.019,0-0.037,0-0.055
	c0-0.012,0-0.024,0-0.036c0-0.018,0-0.036,0-0.054c0-0.013,0-0.024,0-0.036c0-0.018,0-0.036,0-0.054c0-0.054,0-0.107,0-0.162
	c0-0.06,0-0.12,0-0.18c0-0.012,0-0.024,0-0.037c0-0.017,0-0.035,0-0.053c0-0.013,0-0.024,0-0.037c0-0.018,0-0.036,0-0.054
	c0-0.012,0-0.023,0-0.036c0-0.017,0-0.035,0-0.054c0-0.011,0-0.023,0-0.036c0-0.018,0-0.035,0-0.054c0-0.113,0-0.228,0-0.343
	c0-0.119,0-0.24,0-0.359c0-0.055,0-0.108,0-0.162c0-0.06,0-0.12,0-0.18c0-0.012,0-0.023,0-0.036c0-0.018,0-0.035,0-0.054
	c0-0.013,0-0.024,0-0.036c0-0.019,0-0.036,0-0.055c0-0.012,0-0.024,0-0.035c0-0.019,0-0.037,0-0.055c0-0.011,0-0.023,0-0.035
	c0-0.019,0-0.036,0-0.054c0-0.115,0-0.228,0-0.343c0-0.12,0-0.24,0-0.36c0-0.113,0-0.229,0-0.342c0-0.12,0-0.241,0-0.359
	c0-0.115,0-0.229,0-0.342c0-0.03,0-0.061,0-0.09s0-0.06,0-0.09c0-0.029,0-0.059,0-0.089c0-0.012,0-0.024,0-0.036
	c0-0.019,0-0.037,0-0.054c0-0.114,0-0.228,0-0.342c0-0.012,0-0.024,0-0.036c0-0.018,0-0.036,0-0.054c0-0.012,0-0.024,0-0.036
	c0-0.019,0-0.037,0-0.055c0-0.012,0-0.024,0-0.036c0-0.018,0-0.036,0-0.054c0-0.011,0-0.023,0-0.036c0-0.018,0-0.036,0-0.054
	c0-0.024,0-0.048,0-0.072c0-0.012,0-0.024,0-0.036c0-0.018,0-0.036,0-0.054c0-0.012,0-0.024,0-0.035c0-0.019,0-0.037,0-0.055
	c0-0.012,0-0.024,0-0.035c0-0.019,0-0.036,0-0.054c0-0.012,0-0.024,0-0.037c0-0.018,0-0.036,0-0.054c0-0.012,0-0.024,0-0.037
	c0-0.018,0-0.035,0-0.054c0-0.012,0-0.024,0-0.036c0-0.018,0-0.036,0-0.054c0-0.012,0-0.024,0-0.036c0-0.019,0-0.037,0-0.054
	c0-0.114,0-0.228,0-0.342c0-0.011,0-0.024,0-0.036c0-0.018,0-0.036,0-0.054c0-0.012,0-0.024,0-0.036c0-0.019,0-0.037,0-0.054
	c0-0.012,0-0.024,0-0.036c0-0.018,0-0.036,0-0.054c0-0.012,0-0.024,0-0.037c0-0.018,0-0.036,0-0.054c0-0.024,0-0.048,0-0.072
	c0-0.012,0-0.024,0-0.036c0-0.018,0-0.036,0-0.054c0-0.012,0-0.024,0-0.036c0-0.019,0-0.037,0-0.054c0-0.012,0-0.024,0-0.036
	c0-0.018,0-0.036,0-0.054c0-0.012,0-0.024,0-0.037c0-0.018,0-0.035,0-0.053c0-0.013,0-0.024,0-0.036c0-0.018,0-0.036,0-0.055
	c0-0.011,0-0.023,0-0.035c0-0.018,0-0.037,0-0.054c0-0.012,0-0.024,0-0.036c0-0.018,0-0.036,0-0.054c0-0.054,0-0.109,0-0.162
	c0-0.012,0-0.024,0-0.036c0-0.018,0-0.036,0-0.054s0-0.036,0-0.054c0-0.006,0-0.012,0-0.019c0-0.005,0-0.011,0-0.018
	c0-0.006,0-0.012,0-0.018c0-0.024,0-0.048,0-0.072c0-0.018,0-0.036,0-0.054c0-0.006,0-0.012,0-0.018c0-0.006,0-0.012,0-0.018
	c-0.001-0.005,0-0.012,0-0.018c0-0.005,0.002-0.014,0-0.018c-0.001-0.002-0.017,0.001-0.019,0c-0.001-0.001,0-0.016,0-0.018
	c0-0.006,0.001-0.012,0-0.018c0-0.006,0-0.012,0-0.018c0-0.006,0-0.012,0-0.019c0-0.006,0-0.012,0-0.018c0-0.006,0-0.012,0-0.018
	c0-0.005,0.002-0.013,0-0.018c0-0.001-0.017,0.001-0.019,0c-0.002-0.004,0.004-0.015,0-0.018c0-0.002-0.016,0-0.018,0
	c-0.006,0-0.013,0-0.019,0c-0.006-0.001-0.013,0-0.018,0c-0.007,0-0.013,0-0.019,0c-0.007,0-0.013,0-0.019,0
	c-0.007,0-0.013,0-0.019,0c-0.007,0-0.013,0-0.019,0c-0.019,0-0.037,0-0.056,0c-0.018,0-0.036,0-0.055,0c-0.006,0-0.012,0-0.019,0
	c-0.006,0-0.012,0-0.019,0c-0.019,0-0.036,0-0.055,0c-0.024,0-0.049,0-0.073,0c-0.05,0-0.098,0-0.147,0c-0.091,0-0.184,0-0.275,0
	c-0.099,0-0.196,0-0.294,0c-0.189,0-0.38,0-0.569,0s-0.38,0-0.57,0c-0.188,0-0.379,0-0.569,0c-0.188,0-0.379,0-0.569,0
	c-0.188,0-0.379,0-0.569,0c-0.195,0-0.392,0-0.588,0c0-0.187,0-0.372,0-0.558c0-0.187,0-0.373,0-0.559s0-0.372,0-0.558
	c0-0.187,0-0.373,0-0.558c0-0.187,0-0.372,0-0.558c0-0.187,0-0.373,0-0.559c0-0.09,0-0.18,0-0.27c0-0.096,0-0.192,0-0.288
	c0-0.192,0-0.384,0-0.576C10.313,1.152,10.294,1.152,10.276,1.152z M11.487,1.638c0,0.006,0,0.013,0,0.018c0,0.012,0,0.024,0,0.036
	c0,0.054,0,0.108,0,0.162c0,0.012,0,0.024,0,0.036c0,0.018,0,0.036,0,0.054c0,0.012,0,0.024,0,0.036c0,0.018,0,0.036,0,0.054
	c0,0.024,0,0.048,0,0.072c0,0.012,0,0.023,0,0.036c0,0.018,0,0.036,0,0.054c0,0.012,0,0.024,0,0.036c0,0.018,0,0.036,0,0.054
	c0,0.03,0,0.06,0,0.09c0,0.024,0,0.048,0,0.072c0,0.03,0,0.061,0,0.09c0,0.06,0,0.12,0,0.18c0,0.024,0,0.048,0,0.072
	c0,0.012,0,0.024,0,0.036c0,0.019,0,0.036,0,0.054c0,0.013,0,0.024,0,0.036c0,0.018,0,0.036,0,0.054c0,0.012,0,0.023,0,0.036
	c0,0.018,0,0.036,0,0.053c0,0.115,0,0.229,0,0.343c0,0.113,0,0.228,0,0.342s0,0.228,0,0.342c0,0.012,0,0.024,0,0.036
	c0,0.018,0,0.036,0,0.054c0,0.012,0,0.024,0,0.036c0,0.018,0,0.037,0,0.054c0,0.012,0,0.024,0,0.036c0,0.019,0,0.037,0,0.054
	c0,0.012,0,0.024,0,0.037c0,0.018,0,0.035,0,0.053c0,0.019,0,0.037,0,0.054c0.056,0,0.111,0,0.166,0c0.012,0,0.024,0,0.037,0
	c0.019,0,0.036,0,0.055,0c0.013,0,0.024,0,0.036,0c0.019,0,0.037,0,0.056,0c0.013,0,0.024,0,0.037,0c0.019,0,0.036,0,0.055,0
	c0.012,0,0.024,0,0.037,0c0.019,0,0.037,0,0.055,0c0.013,0,0.025,0,0.036,0c0.019,0,0.037,0,0.056,0c0.013,0,0.024,0,0.037,0
	c0.019,0,0.037,0,0.056,0c0.012,0,0.023,0,0.036,0c0.019,0,0.037,0,0.055,0c0.013,0,0.025,0,0.037,0c0.018,0,0.036,0,0.055,0
	c0.013,0,0.024,0,0.037,0c0.019,0,0.037,0,0.056,0c0.012,0,0.023,0,0.036,0c0.019,0,0.037,0,0.056,0c0.012,0,0.024,0,0.036,0
	c0.018,0,0.036,0,0.055,0c0.013,0,0.025,0,0.037,0c0.019,0,0.037,0,0.056,0c0.012,0,0.024,0,0.036,0c0.019,0,0.037,0,0.056,0
	c0.012,0,0.024,0,0.036,0c0.019,0,0.037,0,0.056,0c0.116,0,0.232,0,0.349,0c0.013,0,0.024,0,0.037,0c0.019,0,0.037,0,0.055,0
	c0.012,0,0.024,0,0.037,0c0.019,0,0.036,0,0.055,0c0.013,0,0.025,0,0.037,0c0.019,0,0.036,0,0.055,0c0.013,0,0.024,0,0.037,0
	c0.019,0,0.037,0,0.056,0c0.011,0,0.023,0,0.036,0c0.019,0,0.036,0,0.055,0c0.013,0,0.025,0,0.037,0c0.019,0,0.036,0,0.055,0
	c0.013,0,0.024,0,0.037,0c0.019,0,0.037,0,0.056,0c0.012,0,0.024,0,0.036,0c0.019,0,0.037,0,0.055,0c0.013,0,0.025,0,0.037,0
	c0.019,0,0.037,0,0.055,0c0.013,0,0.024,0,0.037,0c0.019,0,0.037,0,0.056,0c0.012,0,0.024,0,0.037,0c0.018,0,0.036,0,0.055,0
	c0.012,0,0.024,0,0.036,0c0.007,0,0.013,0,0.019,0c0.007,0,0.013,0,0.019,0s0.013,0,0.019,0c0.003,0,0.016,0.002,0.018,0
	c0.001,0,0.001-0.017,0-0.018c-0.003-0.003-0.015,0.002-0.018,0c-0.003-0.004,0.003-0.016,0-0.018c-0.004-0.003-0.016,0.002-0.019,0
	c-0.003-0.003,0.003-0.016,0-0.019c-0.003-0.002-0.016,0.003-0.019,0c-0.002-0.002,0-0.015,0-0.018c0-0.004,0.002-0.014,0-0.018
	c-0.001-0.002-0.016,0.001-0.019,0c-0.003-0.002,0.003-0.016,0-0.018c-0.003-0.003-0.016,0.002-0.019,0
	c-0.003-0.004,0.004-0.016,0-0.019c-0.003-0.003-0.015,0.003-0.018,0c-0.004-0.003,0.003-0.014,0-0.018
	c-0.002-0.003-0.016,0.002-0.019,0c-0.004-0.003,0.003-0.014,0-0.018c-0.003-0.004,0.003-0.016,0-0.018
	c-0.003-0.003-0.016,0.002-0.019,0c-0.003-0.004,0.003-0.014,0-0.019c-0.002-0.002-0.016,0.003-0.018,0
	c-0.004-0.003,0.002-0.015,0-0.018c-0.004-0.003-0.016,0.003-0.019,0c-0.003-0.002,0.003-0.015,0-0.018
	c-0.004-0.003-0.015,0.003-0.019,0c-0.003-0.002,0.002-0.016,0-0.018c-0.003-0.003-0.016,0.002-0.019,0
	c-0.003-0.003,0.003-0.016,0-0.019s-0.017,0.003-0.019,0c-0.003-0.003,0.003-0.014,0-0.018c-0.002-0.003-0.017,0.002-0.019,0
	c-0.003-0.003,0.003-0.015,0-0.018s-0.016,0.003-0.019,0c-0.002-0.003,0.003-0.016,0-0.018c-0.003-0.003-0.014,0.002-0.019,0
	c-0.002-0.002,0.003-0.016,0-0.019s-0.016,0.003-0.018,0c-0.003-0.003,0.002-0.015,0-0.018c-0.003-0.003-0.016,0.003-0.019,0
	c-0.003-0.004,0.003-0.014,0-0.018c-0.002-0.003-0.016,0.002-0.019,0c-0.003-0.003,0.003-0.015,0-0.018
	c-0.003-0.003-0.015,0.002-0.019,0c-0.003-0.003,0.004-0.016,0-0.019c-0.003-0.003-0.015,0.003-0.019,0
	c-0.003-0.003,0.004-0.015,0-0.018c-0.003-0.003-0.015,0.003-0.018,0c-0.004-0.003,0.003-0.015,0-0.018
	c-0.004-0.003-0.015,0.002-0.019,0c-0.004-0.002,0.003-0.015,0-0.018c-0.004-0.003-0.016,0.003-0.019,0s0.003-0.015,0-0.019
	c-0.003-0.002-0.016,0.003-0.019,0c-0.003-0.003,0.003-0.014,0-0.018c-0.002-0.003-0.016,0.002-0.018,0
	c-0.003-0.003,0.003-0.015,0-0.018c-0.003-0.003-0.016,0.003-0.019,0c-0.003-0.003,0.003-0.015,0-0.018
	c-0.004-0.003-0.015,0.002-0.019,0c-0.003-0.002,0.002-0.016,0-0.019c-0.003-0.003-0.016,0.003-0.019,0s0.003-0.015,0-0.018
	s-0.016,0.003-0.019,0s0.003-0.014,0-0.018c-0.002-0.003-0.016,0.002-0.019,0c-0.003-0.003,0.003-0.015,0-0.018
	s-0.016,0.003-0.019,0c-0.002-0.003,0.003-0.016,0-0.019c-0.003-0.002-0.014,0.003-0.018,0c-0.003-0.001,0.002-0.015,0-0.018
	c-0.003-0.003-0.016,0.003-0.019,0c-0.003-0.003,0.003-0.015,0-0.018c-0.003-0.003-0.016,0.003-0.019,0s0.003-0.014,0-0.018
	c-0.002-0.003-0.016,0.002-0.019,0c-0.003-0.003,0.004-0.016,0-0.019c-0.003-0.002-0.015,0.003-0.019,0
	c-0.003-0.002,0.004-0.015,0-0.018c-0.003-0.003-0.014,0.003-0.018,0c-0.004-0.002,0.003-0.015,0-0.018
	c-0.004-0.003-0.016,0.003-0.019,0s0.003-0.015,0-0.018s-0.016,0.003-0.019,0s0.003-0.015,0-0.018s-0.016,0.003-0.018,0
	c-0.004-0.003,0.003-0.015,0-0.018c-0.004-0.003-0.017,0.003-0.019,0c-0.003-0.004,0.002-0.014,0-0.018
	c-0.003-0.003-0.017,0.002-0.019,0c-0.003-0.003,0.003-0.015,0-0.018c-0.003-0.003-0.016,0.003-0.019,0
	c-0.003-0.003,0.003-0.016,0-0.018c-0.004-0.003-0.015,0.002-0.019,0c-0.003-0.002,0.002-0.016,0-0.019
	c-0.003-0.002-0.016,0.003-0.019,0c-0.003-0.002,0.003-0.015,0-0.018c-0.002-0.003-0.016,0.003-0.019,0
	c-0.003-0.004,0.003-0.014,0-0.018c-0.001-0.003-0.016,0.003-0.018,0c-0.004-0.003,0.002-0.015,0-0.018
	c-0.004-0.003-0.016,0.003-0.019,0c-0.003-0.002,0.003-0.016,0-0.018c-0.004-0.003-0.015,0.002-0.019,0
	c-0.003-0.002,0.003-0.016,0-0.018c-0.003-0.003-0.015,0.003-0.019,0c-0.003-0.003,0.004-0.015,0-0.018
	c-0.003-0.003-0.016,0.003-0.019,0c-0.003-0.003,0.003-0.014,0-0.018c-0.002-0.003-0.016,0.002-0.018,0
	c-0.004-0.003,0.003-0.016,0-0.018c-0.004-0.003-0.016,0.002-0.019,0c-0.004-0.003,0.003-0.015,0-0.018
	c-0.004-0.003-0.015,0.003-0.019,0c-0.003-0.002,0.003-0.015,0-0.018s-0.016,0.003-0.019,0c-0.003-0.003,0.003-0.015,0-0.018
	c-0.003-0.002-0.016,0.003-0.018,0c-0.003-0.003,0.002-0.014,0-0.018c-0.003-0.003-0.017,0.002-0.019,0
	c-0.003-0.003,0.003-0.015,0-0.018c-0.003-0.003-0.016,0.003-0.019,0c-0.003-0.003,0.003-0.016,0-0.018
	c-0.004-0.003-0.015,0.002-0.019,0c-0.003-0.002,0.002-0.016,0-0.018c-0.003-0.003-0.016,0.003-0.019,0s0.003-0.016,0-0.018
	c-0.003-0.003-0.016,0.003-0.019,0c-0.003-0.003,0.003-0.014,0-0.018c-0.001-0.003-0.016,0.002-0.019,0
	c-0.003-0.003,0.003-0.015,0-0.018c-0.003-0.003-0.016,0.003-0.019,0c-0.002-0.003,0.003-0.015,0-0.018s-0.014,0.003-0.018,0
	c-0.003-0.002,0.003-0.016,0-0.018s-0.016,0.003-0.019,0c-0.003-0.002,0.003-0.015,0-0.018c-0.003-0.003-0.016,0.003-0.019,0
	c-0.003-0.004,0.003-0.014,0-0.018c-0.002-0.003-0.016,0.002-0.019,0c-0.003-0.003,0.004-0.015,0-0.018
	c-0.003-0.003-0.015,0.003-0.018,0c-0.004-0.003,0.003-0.016,0-0.018c-0.004-0.002-0.015,0.002-0.019,0
	c-0.003-0.002,0.003-0.016,0-0.018c-0.003-0.003-0.016,0.003-0.019,0s0.003-0.015,0-0.018c-0.003-0.002-0.016,0.003-0.019,0
	c-0.003-0.004,0.003-0.014,0-0.018c-0.002-0.002-0.016,0.003-0.018,0c-0.004-0.003,0.003-0.015,0-0.018
	c-0.004-0.002-0.016,0.003-0.019,0c-0.003-0.002,0.003-0.016,0-0.018c-0.004-0.003-0.015,0.002-0.019,0
	c-0.003-0.002,0.002-0.016,0-0.018c-0.003-0.003-0.016,0.003-0.019,0s0.003-0.015,0-0.018s-0.016,0.003-0.019,0
	c-0.003-0.003,0.003-0.014,0-0.019c-0.001-0.002-0.016,0.003-0.019,0c-0.003-0.002,0.003-0.015,0-0.018s-0.016,0.003-0.019,0
	s0.003-0.015,0-0.018c-0.003-0.003-0.015,0.003-0.018,0c-0.004-0.003,0.003-0.015,0-0.018c-0.004-0.003-0.016,0.003-0.019,0
	s0.003-0.016,0-0.018c-0.004-0.003-0.015,0.002-0.019,0c-0.003-0.002,0.003-0.016,0-0.018c-0.003-0.003-0.015,0.003-0.019,0
	c-0.003-0.003,0.004-0.015,0-0.018c-0.003-0.003-0.016,0.003-0.018,0c-0.004-0.003,0.002-0.014,0-0.018
	c-0.003-0.002-0.017,0.003-0.019,0c-0.004-0.003,0.003-0.015,0-0.018c-0.004-0.003-0.016,0.003-0.019,0
	c-0.003-0.002,0.003-0.016,0-0.018c-0.004-0.003-0.015,0.003-0.019,0c-0.003-0.002,0.003-0.015,0-0.018s-0.016,0.003-0.019,0
	c-0.003-0.003,0.003-0.015,0-0.018c-0.002-0.003-0.016,0.003-0.018,0c-0.003-0.004,0.002-0.015,0-0.018
	c-0.003-0.003-0.017,0.001-0.019,0c-0.003-0.003,0.003-0.016,0-0.019c-0.003-0.003-0.016,0.003-0.019,0
	c-0.003-0.003,0.003-0.016,0-0.018c-0.004-0.003-0.015,0.002-0.019,0c-0.003-0.002,0.002-0.015,0-0.018
	c-0.003-0.003-0.016,0.003-0.019,0s0.003-0.015,0-0.018c-0.003-0.002-0.016,0.003-0.019,0c-0.003-0.003,0.003-0.014,0-0.018
	c-0.001-0.003-0.016,0.002-0.019,0c-0.003-0.003,0.003-0.015,0-0.018c-0.003-0.003-0.015,0.003-0.019,0
	c-0.002-0.003,0.004-0.015,0-0.018c-0.003-0.003-0.014,0.002-0.019,0c-0.002-0.002,0.004-0.016,0-0.018
	c-0.002-0.003-0.014,0.002-0.018,0c-0.003-0.003,0.004-0.016,0-0.019c-0.003-0.003-0.015,0.003-0.019,0
	c-0.003-0.003,0.004-0.015,0-0.018c-0.003-0.003-0.015,0.003-0.018,0c-0.004-0.003,0.003-0.015,0-0.018
	c-0.004-0.002-0.017,0.003-0.019,0c-0.004-0.003,0.002-0.014,0-0.018c-0.003-0.002-0.016,0.003-0.019,0s0.003-0.015,0-0.018
	c-0.003-0.003-0.016,0.003-0.019,0c-0.003-0.003,0.003-0.015,0-0.018s-0.014,0.003-0.019,0c-0.002-0.002,0.003-0.015,0-0.018
	c-0.003-0.003-0.015,0.003-0.018,0c-0.003-0.003,0.003-0.015,0-0.018c-0.003-0.003-0.017,0.003-0.019,0
	c-0.003-0.004,0.002-0.015,0-0.019c-0.002-0.003-0.017,0.002-0.019,0c-0.003-0.003,0.003-0.015,0-0.018s-0.016,0.003-0.019,0
	s0.003-0.015,0-0.018c-0.004-0.003-0.015,0.003-0.019,0c-0.003-0.002,0.003-0.015,0-0.018c-0.003-0.002-0.016,0.003-0.019,0
	c-0.003-0.002,0.003-0.015,0-0.018c-0.003-0.002-0.016,0.003-0.019,0s0.003-0.014,0-0.018c-0.001-0.003-0.015,0.003-0.019,0
	c-0.003-0.003,0.004-0.015,0-0.018c-0.003-0.003-0.015,0.003-0.018,0s0.003-0.016,0-0.018c-0.004-0.003-0.015,0.002-0.019,0
	c-0.003-0.002,0.003-0.016,0-0.018c-0.003-0.003-0.015,0.003-0.019,0c-0.003-0.003,0.004-0.015,0-0.018
	c-0.003-0.003-0.016,0.003-0.018,0c-0.004-0.004,0.002-0.014,0-0.018c-0.002-0.002-0.017,0.003-0.019,0
	c-0.003-0.003,0.003-0.015,0-0.018c-0.003-0.002-0.016,0.003-0.019,0c-0.003-0.002,0.003-0.015,0-0.018
	c-0.003-0.002-0.016,0.003-0.019,0c-0.003-0.002,0.003-0.015,0-0.018s-0.016,0.003-0.018,0c-0.003-0.003,0.002-0.015,0-0.018
	c-0.004-0.003-0.015,0.002-0.019,0c-0.003-0.002,0.002-0.016,0-0.018c-0.003-0.003-0.016,0.003-0.019,0s0.003-0.015,0-0.018
	c-0.003-0.002-0.017,0.003-0.019,0c-0.003-0.003,0.002-0.014,0-0.018c-0.002-0.003-0.017,0.003-0.019,0
	c-0.003-0.003,0.003-0.015,0-0.018s-0.016,0.003-0.019,0c-0.003-0.002,0.003-0.015,0-0.018c-0.004-0.003-0.015,0.002-0.019,0
	c-0.003-0.002,0.003-0.016,0-0.018c-0.003-0.003-0.015,0.003-0.019,0c-0.003-0.003,0.004-0.015,0-0.018
	c-0.002-0.003-0.015,0.003-0.019,0c-0.002-0.004,0.004-0.014,0-0.018c-0.001-0.003-0.015,0.002-0.018,0
	c-0.003-0.003,0.003-0.015,0-0.018s-0.015,0.003-0.019,0c-0.003-0.003,0.004-0.016,0-0.018c-0.004-0.003-0.015,0.002-0.018,0
	c-0.004-0.002,0.002-0.016,0-0.019c-0.004-0.003-0.016,0.003-0.019,0c-0.004-0.003,0.003-0.015,0-0.018
	c-0.004-0.002-0.017,0.003-0.019,0c-0.003-0.003,0.002-0.014,0-0.018c-0.003-0.003-0.016,0.002-0.019,0
	c-0.003-0.003,0.003-0.015,0-0.018s-0.016,0.003-0.019,0s0.003-0.016,0-0.018c-0.003-0.003-0.014,0.002-0.019,0
	c-0.002-0.002,0.003-0.016,0-0.018c-0.003-0.003-0.015,0.003-0.018,0c-0.003-0.003,0.003-0.015,0-0.018s-0.017,0.003-0.019,0
	c-0.003-0.003,0.002-0.014,0-0.018c-0.002-0.003-0.017,0.002-0.019,0c-0.003-0.003,0.003-0.016,0-0.019s-0.016,0.003-0.019,0
	s0.003-0.015,0-0.018c-0.004-0.003-0.015,0.003-0.019,0c-0.003-0.002,0.003-0.015,0-0.018c-0.003-0.003-0.016,0.003-0.019,0
	s0.003-0.015,0-0.018s-0.015,0.003-0.019,0c-0.003-0.003,0.004-0.015,0-0.018c-0.001-0.003-0.015,0.002-0.019,0
	c-0.003-0.003,0.004-0.015,0-0.018c-0.003-0.003-0.014,0.003-0.018,0c-0.003-0.003,0.004-0.016,0-0.018
	c-0.004-0.003-0.015,0.002-0.019,0c-0.003-0.002,0.003-0.015,0-0.018c-0.003-0.003-0.015,0.003-0.018,0
	c-0.004-0.003,0.003-0.016,0-0.019c-0.004-0.002-0.017,0.003-0.019,0c-0.004-0.003,0.002-0.014,0-0.018
	c-0.003-0.002-0.017,0.003-0.019,0c-0.003-0.002,0.003-0.015,0-0.018c-0.003-0.002-0.016,0-0.019,0c-0.004,0-0.015,0.001-0.019,0
	c-0.002-0.001,0.001-0.016,0-0.018c-0.002-0.003-0.016,0.002-0.018,0c-0.003-0.003,0.002-0.016,0-0.018
	c-0.004-0.002-0.016,0.003-0.019,0c-0.003-0.002,0.003-0.016,0-0.018c-0.004-0.003-0.015,0.002-0.019,0
	c-0.003-0.002,0.002-0.016,0-0.018c-0.003-0.003-0.016,0.002-0.019,0c-0.003-0.002,0.002-0.015,0-0.018
	c-0.003-0.003-0.015,0.002-0.019,0c-0.005-0.003-0.014,0.002-0.019,0c-0.003-0.002,0.003-0.016,0-0.019
	c-0.003-0.002-0.015,0.003-0.019,0c-0.003-0.002,0.003-0.015,0-0.018C11.506,1.638,11.487,1.638,11.487,1.638z"/>
<g id="Calque_4">
	<rect x="3.041" y="9.003" width="1.303" height="6.333"/>
	<rect x="3.041" y="6.258" width="1.303" height="1.779"/>
	<rect x="6.392" y="6.103" width="1.341" height="9.234"/>
	<rect x="7.343" y="6.103" width="2.948" height="1.045"/>
	<rect x="7.343" y="10.969" width="2.948" height="1.046"/>
	<path d="M10.291,6.103c0,0,2.558-0.031,2.558,2.901c0,2.933-2.558,3.011-2.558,3.011v-1.046c0,0,1.216,0.047,1.216-1.911
		c0-1.957-1.216-1.91-1.216-1.91"/>
</g>
</svg>
