<?xml version="1.0" encoding="utf-8"?>
<!-- Generator: Avocode 2.6.0 - http://avocode.com -->
<svg height="15" width="11" xmlns:xlink="http://www.w3.org/1999/xlink" xmlns="http://www.w3.org/2000/svg" viewBox="0 0 11 15">
    <path fill-rule="evenodd" d="M 5.25 0 C 2.35 0 0 2.35 0 5.25 C 0 9.19 5.25 15 5.25 15 C 5.25 15 10.5 9.19 10.5 5.25 C 10.5 2.35 8.15 0 5.25 0 L 5.25 0 Z M 5.25 7.13 C 4.22 7.13 3.38 6.28 3.38 5.25 C 3.38 4.22 4.22 3.38 5.25 3.38 C 6.28 3.38 7.13 4.22 7.13 5.25 C 7.13 6.28 6.28 7.13 5.25 7.13 L 5.25 7.13 Z M 5.25 7.13" />
</svg>