<svg xmlns="http://www.w3.org/2000/svg" version="1.1" width="12" height="10"><defs/><path d="M966.36 283C966.82 283 967.2 283.16 967.52 283.48 967.84 283.8 968 284.18 968 284.64000000000004L968 291.18000000000006C968 291.63000000000005 967.84 292.02000000000004 967.52 292.3400000000001 967.1999999999999 292.6600000000001 966.8199999999999 292.8200000000001 966.36 292.8200000000001L957.64 292.8200000000001C957.18 292.8200000000001 956.8 292.6600000000001 956.48 292.3400000000001 956.16 292.0200000000001 956 291.6300000000001 956 291.18000000000006L956 284.64000000000004C956 284.18000000000006 956.16 283.80000000000007 956.48 283.48 956.8000000000001 283.16 957.1800000000001 283 957.64 283ZM966.91 285.22L962.3399999999999 288.88000000000005C962.2399999999999 288.96000000000004 962.1299999999999 289.00000000000006 961.9999999999999 289.00000000000006 961.8699999999999 289.00000000000006 961.7599999999999 288.96000000000004 961.6599999999999 288.88000000000005L957.0899999999998 285.22 957.0899999999998 291.18C957.0899999999998 291.33 957.1399999999998 291.46 957.2499999999998 291.57 957.3599999999998 291.67 957.4899999999998 291.73 957.6399999999998 291.73L966.3599999999998 291.73C966.5099999999998 291.73 966.6399999999998 291.67 966.7499999999998 291.57 966.8599999999998 291.46 966.9099999999997 291.33 966.9099999999997 291.18ZM957.64 284.09C957.58 284.09 957.52 284.09999999999997 957.46 284.11999999999995L962 287.75999999999993 966.54 284.11999999999995C966.48 284.09999999999997 966.42 284.09 966.36 284.09Z" transform="matrix(1,0,0,1,-956,-283)"/></svg>