<?xml version="1.0" encoding="utf-8"?>
<!-- Generator: Avocode 2.6.0 - http://avocode.com -->
<svg height="128" width="111" xmlns:xlink="http://www.w3.org/1999/xlink" xmlns="http://www.w3.org/2000/svg" viewBox="0 0 111 128">
    <path fill-rule="evenodd" d="M 54.26 3.29 L 54.26 10.88 C 54.26 11.55 54.81 12.09 55.48 12.09 C 56.15 12.09 56.69 11.55 56.69 10.88 L 56.69 3.29 L 107.31 32.43 L 56.69 61.57 L 56.69 59.34 C 56.69 58.67 56.15 58.13 55.48 58.13 C 54.81 58.13 54.26 58.67 54.26 59.34 L 54.26 61.57 L 3.65 32.43 L 54.26 3.29 Z M 27.81 108.82 L 22.72 105.89 L 22.71 105.89 L 10.24 98.71 C 10.24 98.71 10.24 98.71 10.24 98.71 L 3.65 94.91 L 10.24 91.11 C 10.82 90.78 11.02 90.04 10.68 89.46 C 10.35 88.88 9.61 88.68 9.02 89.02 L 2.43 92.81 L 2.43 34.53 L 21.45 45.48 L 53.05 63.67 L 46.45 67.47 C 45.87 67.8 45.67 68.54 46.01 69.12 C 46.34 69.7 47.09 69.9 47.67 69.57 L 54.26 65.77 L 54.26 79.3 L 54.26 124.05 L 27.81 108.82 Z M 101.93 89.02 C 101.35 88.68 100.6 88.88 100.27 89.46 C 99.93 90.04 100.13 90.78 100.71 91.11 L 107.31 94.91 L 63.28 120.26 L 63.28 120.26 L 56.69 124.05 L 56.69 80.95 L 56.69 65.77 L 63.29 69.57 C 63.48 69.68 63.69 69.73 63.89 69.73 C 64.31 69.73 64.72 69.51 64.95 69.12 C 65.28 68.54 65.08 67.8 64.5 67.47 L 57.91 63.67 L 93.24 43.33 L 108.52 34.53 L 108.52 92.81 L 101.93 89.02 Z M 110.95 32.43 C 110.95 32 110.72 31.6 110.35 31.38 L 56.08 0.14 C 56.07 0.13 56.04 0.13 56.03 0.12 C 55.86 0.04 55.68 -0.02 55.48 -0.02 C 55.27 -0.02 55.09 0.04 54.93 0.12 C 54.91 0.13 54.89 0.13 54.87 0.14 L 0.61 31.38 C 0.23 31.6 0 32 0 32.43 L 0 94.91 C 0 95.34 0.23 95.75 0.61 95.96 L 27.74 111.58 L 33.98 115.17 C 33.98 115.17 33.98 115.17 33.98 115.17 L 46.45 122.35 C 46.45 122.35 46.45 122.35 46.45 122.36 L 54.87 127.2 C 55.06 127.31 55.27 127.37 55.47 127.37 C 55.48 127.37 55.48 127.36 55.48 127.36 L 55.49 127.36 C 55.7 127.36 55.88 127.3 56.05 127.21 C 56.06 127.21 56.07 127.21 56.08 127.2 L 56.08 127.2 L 56.08 127.2 L 76.98 115.17 L 76.98 115.17 L 89.45 107.99 L 89.45 107.99 L 101.93 100.81 L 101.93 100.81 L 110.35 95.96 C 110.72 95.74 110.95 95.34 110.95 94.91 C 110.95 94.91 110.95 94.91 110.95 94.91 L 110.95 32.43 Z M 110.95 32.43" />
</svg>