<?xml version="1.0" encoding="utf-8"?>
<!-- Generator: Avocode 2.6.0 - http://avocode.com -->
<svg height="18" width="16" xmlns:xlink="http://www.w3.org/1999/xlink" xmlns="http://www.w3.org/2000/svg" viewBox="0 0 16 18">
    <path fill-rule="evenodd" d="M 13.89 10.36 C 13.65 10.13 13.11 10 12.29 9.99 C 11.73 9.98 11.06 10.03 10.35 10.13 C 10.04 9.95 9.71 9.75 9.46 9.52 C 8.77 8.89 8.2 8.01 7.84 7.05 C 7.86 6.96 7.88 6.88 7.9 6.8 C 7.9 6.8 8.29 4.64 8.19 3.9 C 8.17 3.8 8.16 3.77 8.14 3.7 L 8.1 3.61 C 8 3.37 7.79 3.12 7.47 3.13 L 7.27 3.13 C 6.91 3.13 6.62 3.31 6.54 3.58 C 6.31 4.43 6.55 5.71 6.99 7.36 L 6.88 7.62 C 6.56 8.38 6.17 9.14 5.82 9.81 L 5.78 9.89 C 5.41 10.6 5.08 11.19 4.78 11.7 L 4.47 11.86 C 4.45 11.87 3.91 12.15 3.79 12.23 C 2.73 12.85 2.03 13.55 1.91 14.11 C 1.88 14.29 1.9 14.52 2.09 14.63 L 2.39 14.78 C 2.52 14.84 2.66 14.87 2.8 14.87 C 3.55 14.87 4.43 13.95 5.63 11.88 C 7.03 11.43 8.61 11.06 10 10.86 C 11.06 11.44 12.36 11.85 13.18 11.85 C 13.33 11.85 13.45 11.84 13.55 11.81 C 13.71 11.77 13.84 11.68 13.92 11.56 C 14.08 11.32 14.12 11 14.07 10.67 C 14.06 10.57 13.98 10.45 13.89 10.36 L 13.89 10.36 Z M 2.64 14.31 C 2.77 13.94 3.32 13.21 4.12 12.56 C 4.17 12.52 4.3 12.4 4.41 12.3 C 3.57 13.62 3.01 14.14 2.64 14.31 L 2.64 14.31 Z M 7.4 3.51 C 7.64 3.51 7.78 4.11 7.79 4.67 C 7.8 5.24 7.67 5.63 7.5 5.93 C 7.37 5.49 7.3 4.81 7.3 4.36 C 7.3 4.36 7.29 3.51 7.4 3.51 L 7.4 3.51 L 7.4 3.51 Z M 5.98 11.21 C 6.15 10.91 6.32 10.6 6.5 10.26 C 6.94 9.45 7.22 8.81 7.42 8.29 C 7.83 9.02 8.34 9.64 8.94 10.14 C 9.01 10.2 9.09 10.27 9.18 10.33 C 7.96 10.57 6.91 10.86 5.98 11.21 L 5.98 11.21 L 5.98 11.21 Z M 13.66 11.14 C 13.58 11.18 13.37 11.21 13.24 11.21 C 12.79 11.21 12.25 11.01 11.48 10.69 C 11.78 10.67 12.05 10.66 12.29 10.66 C 12.73 10.66 12.86 10.65 13.3 10.76 C 13.73 10.87 13.73 11.09 13.66 11.14 L 13.66 11.14 L 13.66 11.14 Z M 13.66 11.14" />
    <path fill-rule="evenodd" d="M 15.25 4.03 C 14.85 3.49 14.3 2.87 13.69 2.27 C 13.08 1.68 12.45 1.13 11.91 0.74 C 10.99 0.08 10.54 0 10.29 0 L 1.43 0 C 0.64 0 0 0.63 0 1.41 L 0 16.59 C 0 17.37 0.64 18 1.43 18 L 14.57 18 C 15.36 18 16 17.37 16 16.59 L 16 5.63 C 16 5.37 15.92 4.93 15.25 4.03 L 15.25 4.03 L 15.25 4.03 Z M 12.88 3.07 C 13.43 3.61 13.86 4.1 14.18 4.5 L 11.43 4.5 L 11.43 1.79 C 11.84 2.11 12.33 2.53 12.88 3.07 L 12.88 3.07 L 12.88 3.07 Z M 14.86 16.59 C 14.86 16.75 14.73 16.87 14.57 16.87 L 1.43 16.87 C 1.27 16.87 1.14 16.75 1.14 16.59 L 1.14 1.41 C 1.14 1.25 1.27 1.12 1.43 1.12 C 1.43 1.12 10.28 1.12 10.29 1.12 L 10.29 5.06 C 10.29 5.37 10.54 5.62 10.86 5.62 L 14.86 5.62 L 14.86 16.59 L 14.86 16.59 Z M 14.86 16.59" />
</svg>