<?xml version="1.0" encoding="utf-8"?>
<!-- Generator: Avocode 2.6.0 - http://avocode.com -->
<svg xmlns:xlink="http://www.w3.org/1999/xlink" xmlns="http://www.w3.org/2000/svg" viewBox="0 0 14 10">
    <path fill-rule="evenodd" d="M 8.4 2.8 L 0 2.8 L 0 4.2 L 8.4 4.2 L 8.4 2.8 L 8.4 2.8 Z M 8.4 0 L 0 0 L 0 1.4 L 8.4 1.4 L 8.4 0 L 8.4 0 Z M 11.2 5.6 L 11.2 2.8 L 9.8 2.8 L 9.8 5.6 L 7 5.6 L 7 7 L 9.8 7 L 9.8 9.8 L 11.2 9.8 L 11.2 7 L 14 7 L 14 5.6 L 11.2 5.6 L 11.2 5.6 Z M 0 7 L 5.6 7 L 5.6 5.6 L 0 5.6 L 0 7 L 0 7 Z M 0 7" />
</svg>