<svg id="SvgjsSvg1011" xmlns="http://www.w3.org/2000/svg" version="1.1" xmlns:xlink="http://www.w3.org/1999/xlink" xmlns:svgjs="http://svgjs.com/svgjs" width="30" height="30"><defs id="SvgjsDefs1012"></defs><path id="SvgjsPath1013" d="M608.5 667L608.5 680.5L589 680.5L589 683.5C589 684.33 589.67 685 590.5 685L607 685L613 691L613 668.5C613 667.68 612.33 667 611.5 667ZM605.5 676C605.5 676.83 604.83 677.5 604 677.5L589 677.5L583 683.5L583 662.5C583 661.68 583.67 661 584.5 661L604 661C604.83 661 605.5 661.68 605.5 662.5Z " fill-opacity="1" transform="matrix(1,0,0,1,-583,-661)"></path></svg>