<svg id="SvgjsSvg1014" xmlns="http://www.w3.org/2000/svg" version="1.1" xmlns:xlink="http://www.w3.org/1999/xlink" xmlns:svgjs="http://svgjs.com/svgjs" width="30" height="30"><defs id="SvgjsDefs1015"></defs><path id="SvgjsPath1016" d="M796 676C796 684.29 802.71 691 811 691C819.29 691 826 684.29 826 676C826 667.71 819.29 661 811 661C802.71 661 796 667.71 796 676ZM799 676C799 675.08 799.11 674.18 799.32 673.32L806.5 680.5L806.5 682C806.5 683.66 807.84 685 809.5 685L809.5 687.9C803.58 687.16 799 682.12 799 676ZM817 682L815.5 682L815.5 677.5C815.5 676.68 814.83 676 814 676L805 676L805 673L808 673C808.83 673 809.5 672.33 809.5 671.5L809.5 668.5L812.5 668.5C814.16 668.5 815.5 667.16 815.5 665.5L815.5 664.88C819.9 666.66 823 670.96 823 676C823 679.12 821.8 681.96 819.84 684.09C819.46 682.88 818.34 682 817 682Z " fill-opacity="1" transform="matrix(1,0,0,1,-796,-661)"></path></svg>