<svg id="SvgjsSvg1000" xmlns="http://www.w3.org/2000/svg" version="1.1" xmlns:xlink="http://www.w3.org/1999/xlink" xmlns:svgjs="http://svgjs.com/svgjs" width="33" height="30"><defs id="SvgjsDefs1001"></defs><path id="SvgjsPath1007" d="M212.14 672.07L225.32999999999998 687.4000000000001C225.64 687.7600000000001 225.6 688.3100000000001 225.24999999999997 688.6200000000001L223.68999999999997 689.9200000000001C223.32999999999996 690.23 222.78999999999996 690.2 222.47999999999996 689.84L209.15999999999997 674.6700000000001C208.98999999999998 674.4900000000001 209.01999999999998 674.19 209.19999999999996 674.0300000000001L211.49999999999997 672.0200000000001C211.70999999999998 671.8400000000001 211.94999999999996 671.8400000000001 212.13999999999996 672.07ZM202.97 671.24C202.32 671.74 202.52 673.02 202.4 673.13C202.27 673.24 201.54 673.88 201.26000000000002 674.13C200.97000000000003 674.38 200.52 674.21 200.35000000000002 674.01C200.17000000000002 673.8199999999999 198.15000000000003 671.5699999999999 198.15000000000003 671.5699999999999C197.93000000000004 671.3199999999999 197.97000000000003 670.9999999999999 198.18000000000004 670.8199999999999C198.39000000000004 670.6299999999999 199.13000000000002 670.0699999999999 199.40000000000003 669.8399999999999C199.93000000000004 669.3699999999999 200.51000000000005 669.9799999999999 201.43000000000004 669.17C202.31000000000003 668.41 201.90000000000003 667.4399999999999 202.39000000000004 667.01C202.49000000000004 666.92 203.13000000000005 666.24 204.83000000000004 665.0699999999999C206.13000000000005 664.17 208.72000000000003 662.2499999999999 210.78000000000003 662.03C211.29000000000002 661.97 214.70000000000002 662.01 215.54000000000002 662.03C217.21 662.0699999999999 206.36 664.65 209.26000000000002 668.4499999999999C209.66000000000003 668.9699999999999 210.29000000000002 669.78 210.46 669.9799999999999C210.63 670.18 210.5 670.3499999999999 210.39000000000001 670.4499999999999C210.29000000000002 670.54 208.09 672.5099999999999 207.95000000000002 672.6299999999999C207.81000000000003 672.7599999999999 207.56000000000003 673.0099999999999 207.37 672.7899999999998C205.71 670.8699999999999 204.47 670.0699999999998 202.97 671.2399999999999ZM229.91 665.61C230.03 666.4 230.16 669.47 229.38 670.9300000000001C228.51999999999998 672.5600000000001 227.09 673.5400000000001 224.47 672.95C223.24 672.6700000000001 221.89 673.2900000000001 221.26 673.9200000000001L218.6 676.45L216.43 673.9300000000001L218.59 671.6800000000001C220.37 669.8900000000001 219.46 668.09 219.95000000000002 666.07C220.44000000000003 664.08 223.92000000000002 662.7 224.49 662.4300000000001C225.06 662.1700000000001 225.23000000000002 662.8000000000001 225.09 663.0200000000001C224.94 663.2300000000001 223.95000000000002 664.9600000000002 223.63 665.57C223.31 666.1800000000001 222.67 667.1 224.51 668.4000000000001C226.28 669.6500000000001 227.23 668.3800000000001 227.62 667.7400000000001C228.01 667.0900000000001 228.95000000000002 665.6600000000001 229.17000000000002 665.3200000000002C229.38000000000002 664.9800000000001 229.79000000000002 664.8200000000002 229.91000000000003 665.6100000000001ZM202.34 688.78L203.86 690.28C204.20000000000002 690.61 204.73000000000002 690.47 205.06 690.13L212.95 682.38L210.53 679.63L202.34 687.56C202 687.9 202 688.4499999999999 202.34 688.78Z "  fill-opacity="1" transform="matrix(1,0,0,1,-198,-661)"></path></svg>