<?xml version="1.0" encoding="utf-8"?>
<!-- Generator: Avocode 2.6.0 - http://avocode.com -->
<svg height="14" width="14" xmlns:xlink="http://www.w3.org/1999/xlink" xmlns="http://www.w3.org/2000/svg" viewBox="0 0 14 14">
    <path fill-rule="evenodd" d="M 4.22 8.82 C 6.21 8.82 7.82 7.21 7.82 5.22 C 7.82 3.23 6.21 1.61 4.22 1.61 C 2.23 1.61 0.61 3.23 0.61 5.22 C 0.61 7.21 2.23 8.82 4.22 8.82 L 4.22 8.82 Z M 9.02 8.82 L 13 12.8 L 11.8 14 L 7.82 10.02 L 7.82 9.38 L 7.6 9.16 C 6.69 9.95 5.49 10.4 4.22 10.4 C 1.33 10.4 -1 8.11 -1 5.22 C -1 2.33 1.33 0 4.22 0 C 7.11 0 9.4 2.33 9.4 5.22 C 9.4 6.49 8.95 7.69 8.16 8.6 L 8.38 8.82 L 9.02 8.82 L 9.02 8.82 Z M 9.02 8.82" />
</svg>