<?xml version="1.0" encoding="utf-8"?>
<!-- Generator: Avocode 2.6.0 - http://avocode.com -->
<svg height="14" width="14" xmlns:xlink="http://www.w3.org/1999/xlink" xmlns="http://www.w3.org/2000/svg" viewBox="0 0 14 14">
    <path fill-rule="evenodd" d="M 11.2 0 C 11.97 0 12.63 0.27 13.18 0.82 C 13.73 1.37 14 2.03 14 2.8 C 14 3.57 13.73 4.23 13.18 4.78 C 12.63 5.33 11.97 5.6 11.2 5.6 C 10.79 5.6 10.4 5.52 10.03 5.35 C 9.67 5.18 9.35 4.94 9.09 4.64 L 5.54 6.41 C 5.58 6.61 5.6 6.8 5.6 7 C 5.6 7.2 5.58 7.39 5.54 7.59 L 9.09 9.36 C 9.35 9.06 9.67 8.82 10.03 8.65 C 10.4 8.48 10.79 8.4 11.2 8.4 C 11.97 8.4 12.63 8.67 13.18 9.22 C 13.73 9.77 14 10.43 14 11.2 C 14 11.97 13.73 12.63 13.18 13.18 C 12.63 13.73 11.97 14 11.2 14 C 10.43 14 9.77 13.73 9.22 13.18 C 8.67 12.63 8.4 11.97 8.4 11.2 C 8.4 11 8.42 10.81 8.46 10.61 L 4.91 8.84 C 4.65 9.14 4.33 9.38 3.97 9.55 C 3.6 9.72 3.21 9.8 2.8 9.8 C 2.03 9.8 1.37 9.53 0.82 8.98 C 0.27 8.43 0 7.77 0 7 C 0 6.23 0.27 5.57 0.82 5.02 C 1.37 4.47 2.03 4.2 2.8 4.2 C 3.21 4.2 3.6 4.28 3.97 4.45 C 4.33 4.62 4.65 4.86 4.91 5.16 L 8.46 3.39 C 8.42 3.19 8.4 3 8.4 2.8 C 8.4 2.03 8.67 1.37 9.22 0.82 C 9.77 0.27 10.43 0 11.2 0 L 11.2 0 Z M 2.8 5.6 C 2.41 5.6 2.08 5.74 1.81 6.01 C 1.54 6.28 1.4 6.61 1.4 7 C 1.4 7.39 1.54 7.72 1.81 7.99 C 2.08 8.26 2.41 8.4 2.8 8.4 C 3.19 8.4 3.52 8.26 3.79 7.99 C 4.06 7.72 4.2 7.39 4.2 7 C 4.2 6.61 4.06 6.28 3.79 6.01 C 3.52 5.74 3.19 5.6 2.8 5.6 L 2.8 5.6 Z M 11.2 9.8 C 10.81 9.8 10.48 9.94 10.21 10.21 C 9.94 10.48 9.8 10.81 9.8 11.2 C 9.8 11.59 9.94 11.92 10.21 12.19 C 10.48 12.46 10.81 12.6 11.2 12.6 C 11.59 12.6 11.92 12.46 12.19 12.19 C 12.46 11.92 12.6 11.59 12.6 11.2 C 12.6 10.81 12.46 10.48 12.19 10.21 C 11.92 9.94 11.59 9.8 11.2 9.8 L 11.2 9.8 Z M 11.2 1.4 C 10.81 1.4 10.48 1.54 10.21 1.81 C 9.94 2.08 9.8 2.41 9.8 2.8 C 9.8 3.19 9.94 3.52 10.21 3.79 C 10.48 4.06 10.81 4.2 11.2 4.2 C 11.59 4.2 11.92 4.06 12.19 3.79 C 12.46 3.52 12.6 3.19 12.6 2.8 C 12.6 2.41 12.46 2.08 12.19 1.81 C 11.92 1.54 11.59 1.4 11.2 1.4 L 11.2 1.4 Z M 11.2 1.4" />
</svg>