<?xml version="1.0" encoding="utf-8"?>
<!-- Generator: Avocode 2.6.0 - http://avocode.com -->
<svg height="119" width="119" xmlns:xlink="http://www.w3.org/1999/xlink" xmlns="http://www.w3.org/2000/svg" viewBox="0 0 119 119">
    <path fill-rule="evenodd" d="M 64.84 95.5 L 60.56 95.42 C 60.1 95.46 59.69 95.68 59.5 96.09 C 58.8 97.65 57.91 99.17 56.86 100.63 C 56.59 101 56.57 101.49 56.8 101.88 L 59.01 105.55 C 58.41 106.26 57.82 106.91 57.22 107.51 C 56.62 108.11 55.97 108.7 55.26 109.3 L 51.59 107.1 C 51.2 106.86 50.71 106.88 50.34 107.15 C 48.88 108.2 47.35 109.09 45.8 109.79 C 45.39 109.98 45.13 110.4 45.13 110.85 L 45.21 115.13 C 43.49 115.73 41.78 116.19 40.1 116.49 L 38.02 112.74 C 37.82 112.38 37.44 112.16 37.03 112.16 C 37 112.16 36.96 112.16 36.93 112.16 C 35.16 112.33 33.41 112.33 31.65 112.16 C 31.21 112.12 30.77 112.35 30.56 112.74 L 28.48 116.48 C 26.78 116.17 25.06 115.71 23.36 115.11 L 23.45 110.85 C 23.46 110.4 23.19 109.98 22.78 109.79 C 21.13 109.05 19.6 108.17 18.22 107.17 C 17.85 106.9 17.36 106.88 16.97 107.11 L 13.32 109.3 C 12.61 108.7 11.96 108.11 11.36 107.51 C 10.77 106.91 10.18 106.27 9.59 105.57 L 11.78 101.92 C 12.01 101.53 11.99 101.04 11.72 100.67 C 10.73 99.3 9.87 97.81 9.07 96.11 C 8.88 95.71 8.46 95.44 8.03 95.46 L 3.76 95.52 C 3.16 93.83 2.7 92.11 2.39 90.39 L 6.13 88.32 C 6.52 88.1 6.75 87.67 6.71 87.22 C 6.54 85.44 6.54 83.72 6.71 81.94 C 6.75 81.49 6.52 81.06 6.13 80.84 L 2.4 78.79 C 2.72 77.02 3.18 75.31 3.77 73.66 L 8.02 73.74 C 8.46 73.76 8.89 73.48 9.08 73.07 C 9.78 71.52 10.67 69.99 11.72 68.53 C 11.99 68.16 12.01 67.67 11.78 67.28 L 9.59 63.63 C 10.19 62.91 10.78 62.27 11.38 61.67 C 11.98 61.07 12.63 60.48 13.34 59.88 L 16.99 62.07 C 17.38 62.3 17.87 62.28 18.24 62.01 C 19.7 60.96 21.22 60.07 22.78 59.37 C 23.19 59.18 23.45 58.77 23.45 58.31 L 23.37 54.06 C 25.01 53.47 26.73 53.01 28.5 52.69 L 30.55 56.42 C 30.77 56.81 31.19 57.04 31.65 57 C 33.41 56.83 35.17 56.83 36.93 57 C 37.39 57.04 37.81 56.81 38.02 56.42 L 40.1 52.68 C 41.82 52.99 43.54 53.45 45.23 54.05 L 45.17 58.32 C 45.16 58.76 45.42 59.17 45.82 59.36 C 47.52 60.16 49.01 61.02 50.38 62.01 C 50.74 62.28 51.24 62.3 51.63 62.07 L 55.28 59.88 C 55.99 60.48 56.62 61.05 57.22 61.65 C 57.82 62.25 58.41 62.9 59.01 63.61 L 56.82 67.26 C 56.59 67.65 56.61 68.14 56.88 68.51 C 57.87 69.89 58.76 71.43 59.5 73.07 C 59.69 73.49 60.1 73.74 60.56 73.74 L 64.82 73.65 C 65.42 75.35 65.88 77.07 66.19 78.77 L 62.45 80.85 C 62.06 81.06 61.83 81.5 61.87 81.94 C 62.04 83.72 62.04 85.44 61.87 87.22 C 61.83 87.67 62.06 88.1 62.45 88.32 L 66.2 90.39 C 65.9 92.07 65.44 93.78 64.84 95.5 M 68 88.8 L 64.19 86.69 C 64.29 85.28 64.29 83.89 64.19 82.47 L 68 80.36 C 68.41 80.14 68.64 79.67 68.57 79.2 C 68.2 76.84 67.56 74.45 66.67 72.1 C 66.5 71.65 66.13 71.39 65.58 71.36 L 61.25 71.45 C 60.63 70.16 59.92 68.94 59.15 67.8 L 61.37 64.09 C 61.62 63.68 61.58 63.16 61.28 62.79 C 60.45 61.77 59.65 60.87 58.82 60.05 C 58 59.22 57.13 58.45 56.1 57.61 C 55.73 57.31 55.21 57.27 54.8 57.52 L 51.09 59.74 C 49.97 58.97 48.76 58.27 47.45 57.62 L 47.51 53.28 C 47.51 52.8 47.22 52.37 46.78 52.2 C 44.45 51.32 42.06 50.68 39.67 50.3 C 39.21 50.23 38.74 50.46 38.51 50.87 L 36.4 54.68 C 34.98 54.58 33.6 54.58 32.19 54.68 L 30.09 50.89 C 29.86 50.48 29.4 50.24 28.93 50.32 C 26.46 50.71 24.06 51.35 21.81 52.23 C 21.37 52.4 21.08 52.83 21.09 53.3 L 21.17 57.62 C 19.92 58.22 18.7 58.93 17.52 59.74 L 13.82 57.52 C 13.41 57.27 12.89 57.31 12.52 57.61 C 11.5 58.44 10.6 59.24 9.78 60.07 C 8.95 60.89 8.15 61.78 7.32 62.81 C 7.02 63.18 6.98 63.7 7.23 64.11 L 9.45 67.82 C 8.64 69 7.93 70.22 7.33 71.46 L 3.01 71.38 C 2.55 71.38 2.11 71.66 1.93 72.1 C 1.05 74.36 0.41 76.75 0.03 79.22 C -0.04 79.69 0.19 80.15 0.6 80.38 L 4.39 82.48 C 4.29 83.89 4.29 85.28 4.39 86.69 L 0.58 88.8 C 0.17 89.03 -0.06 89.49 0.01 89.97 C 0.39 92.35 1.03 94.73 1.91 97.07 C 2.08 97.51 2.53 97.78 2.99 97.8 L 7.33 97.74 C 7.98 99.05 8.68 100.26 9.45 101.38 L 7.23 105.09 C 6.98 105.5 7.02 106.02 7.32 106.39 C 8.14 107.4 8.94 108.29 9.76 109.11 C 10.58 109.94 11.48 110.74 12.5 111.57 C 12.87 111.87 13.39 111.91 13.8 111.66 L 17.51 109.44 C 18.65 110.21 19.87 110.92 21.16 111.54 L 21.07 115.87 C 21.06 116.35 21.36 116.79 21.81 116.96 C 24.16 117.85 26.55 118.49 28.91 118.86 C 28.97 118.87 29.02 118.87 29.08 118.87 C 29.49 118.87 29.87 118.65 30.07 118.29 L 32.18 114.48 C 33.59 114.58 34.98 114.58 36.4 114.48 L 38.51 118.29 C 38.74 118.7 39.2 118.93 39.67 118.86 C 41.99 118.51 44.38 117.88 46.76 116.97 C 47.21 116.8 47.5 116.37 47.49 115.89 L 47.41 111.54 C 48.66 110.94 49.87 110.23 51.06 109.42 L 54.78 111.66 C 55.19 111.91 55.71 111.87 56.08 111.57 C 57.1 110.74 58 109.94 58.82 109.11 C 59.65 108.29 60.45 107.39 61.28 106.37 C 61.58 106 61.62 105.48 61.37 105.07 L 59.13 101.35 C 59.94 100.17 60.65 98.95 61.25 97.71 L 65.6 97.78 C 66.06 97.77 66.51 97.5 66.68 97.05 C 67.59 94.67 68.22 92.29 68.57 89.96 C 68.64 89.49 68.41 89.03 68 88.8" />
    <path fill="#f6f6f6" fill-rule="evenodd" d="M 42.03 92.32 C 39.96 94.39 37.21 95.53 34.29 95.53 C 31.37 95.53 28.62 94.39 26.55 92.32 C 22.29 88.06 22.3 81.13 26.57 76.86 C 28.64 74.79 31.39 73.65 34.31 73.65 C 37.23 73.65 39.97 74.78 42.03 76.84 C 46.3 81.11 46.3 88.05 42.03 92.32 M 34.31 71.38 C 30.78 71.38 27.46 72.76 24.96 75.26 C 19.81 80.41 19.81 88.78 24.95 93.92 C 27.45 96.42 30.76 97.8 34.29 97.8 C 37.82 97.8 41.13 96.42 43.63 93.92 C 48.79 88.77 48.79 80.39 43.63 75.24 C 41.15 72.75 37.84 71.38 34.31 71.38" />
    <path fill="#f6f6f6" fill-rule="evenodd" d="M 49.26 99.55 C 45.25 103.55 39.94 105.76 34.28 105.76 C 28.63 105.76 23.31 103.55 19.31 99.55 C 11.07 91.31 11.08 77.89 19.34 69.63 C 23.35 65.62 28.67 63.42 34.33 63.42 C 39.97 63.42 45.27 65.61 49.26 69.6 C 57.51 77.86 57.51 91.29 49.26 99.55 M 34.33 61.15 C 28.06 61.15 22.17 63.59 17.74 68.03 C 8.59 77.17 8.58 92.03 17.7 101.15 C 22.14 105.58 28.02 108.03 34.28 108.03 C 40.54 108.03 46.43 105.58 50.86 101.15 C 60 92.01 60 77.14 50.86 67.99 C 46.45 63.58 40.58 61.15 34.33 61.15" />
    <path fill="#f6f6f6" fill-rule="evenodd" d="M 116.21 37.32 L 112.08 38.36 C 111.64 38.47 111.31 38.83 111.24 39.28 C 110.97 40.96 110.51 42.67 109.87 44.36 C 109.71 44.79 109.82 45.27 110.15 45.58 L 113.22 48.53 C 112.45 50.16 111.56 51.7 110.57 53.12 L 106.46 51.94 C 106.03 51.82 105.56 51.96 105.27 52.31 C 104.14 53.68 102.92 54.9 101.55 56.04 C 101.2 56.33 101.05 56.79 101.18 57.23 L 102.36 61.34 C 100.96 62.32 99.43 63.21 97.79 63.99 L 94.81 60.91 C 94.5 60.59 94.02 60.48 93.6 60.64 C 92 61.24 90.29 61.69 88.51 61.98 C 88.06 62.05 87.7 62.38 87.59 62.82 L 86.56 66.98 C 84.7 67.14 83.11 67.14 81.25 66.98 L 80.22 62.82 C 80.11 62.38 79.75 62.05 79.3 61.98 C 77.52 61.69 75.81 61.24 74.22 60.64 C 73.79 60.48 73.32 60.59 73 60.91 L 70.03 63.99 C 68.39 63.21 66.85 62.32 65.45 61.34 L 66.63 57.23 C 66.76 56.79 66.61 56.33 66.27 56.04 C 64.89 54.9 63.67 53.68 62.54 52.31 C 62.25 51.96 61.78 51.82 61.35 51.94 L 57.24 53.12 C 56.25 51.7 55.37 50.16 54.59 48.53 L 57.66 45.58 C 57.99 45.27 58.1 44.79 57.94 44.36 C 57.3 42.67 56.84 40.96 56.57 39.28 C 56.5 38.83 56.17 38.47 55.73 38.36 L 51.6 37.32 C 51.52 36.39 51.48 35.52 51.48 34.67 C 51.48 33.82 51.52 32.97 51.6 32.04 L 55.73 31.01 C 56.17 30.9 56.5 30.54 56.57 30.09 C 56.84 28.43 57.28 26.76 57.92 24.99 C 58.07 24.57 57.96 24.1 57.64 23.79 L 54.59 20.82 C 55.36 19.2 56.25 17.66 57.24 16.22 L 61.35 17.4 C 61.78 17.52 62.25 17.38 62.54 17.03 C 63.67 15.66 64.9 14.44 66.27 13.3 C 66.61 13.02 66.76 12.55 66.63 12.12 L 65.46 8.03 C 66.93 7 68.47 6.11 70.04 5.37 L 73 8.43 C 73.32 8.76 73.79 8.86 74.22 8.7 C 75.81 8.1 77.52 7.65 79.3 7.36 C 79.75 7.29 80.11 6.96 80.22 6.52 L 81.25 2.39 C 83.1 2.23 84.71 2.23 86.56 2.39 L 87.59 6.52 C 87.7 6.96 88.06 7.29 88.51 7.36 C 90.29 7.65 92 8.1 93.6 8.7 C 94.02 8.86 94.5 8.76 94.81 8.43 L 97.77 5.37 C 99.35 6.11 100.88 7 102.36 8.03 L 101.18 12.12 C 101.05 12.55 101.2 13.02 101.55 13.3 C 102.92 14.44 104.14 15.66 105.27 17.03 C 105.56 17.38 106.03 17.52 106.46 17.4 L 110.57 16.22 C 111.56 17.66 112.45 19.2 113.23 20.82 L 110.17 23.79 C 109.85 24.1 109.74 24.57 109.89 24.99 C 110.53 26.76 110.97 28.43 111.24 30.09 C 111.31 30.54 111.64 30.9 112.08 31.01 L 116.21 32.04 C 116.29 32.97 116.33 33.82 116.33 34.67 C 116.33 35.52 116.29 36.39 116.21 37.32 M 118.4 31.02 C 118.35 30.54 118.01 30.15 117.54 30.03 L 113.35 28.99 C 113.1 27.65 112.74 26.31 112.27 24.91 L 115.38 21.88 C 115.73 21.55 115.82 21.04 115.63 20.6 C 114.61 18.33 113.37 16.19 111.95 14.24 C 111.67 13.85 111.18 13.69 110.72 13.82 L 106.54 15.02 C 105.61 13.95 104.63 12.97 103.56 12.04 L 104.76 7.88 C 104.89 7.42 104.72 6.93 104.34 6.65 C 102.32 5.18 100.18 3.94 97.96 2.97 C 97.53 2.78 97.02 2.88 96.69 3.22 L 93.69 6.33 C 92.39 5.88 91.02 5.52 89.61 5.25 L 88.57 1.06 C 88.45 0.6 88.06 0.25 87.58 0.2 C 84.98 -0.07 82.83 -0.07 80.23 0.2 C 79.75 0.25 79.36 0.6 79.24 1.06 L 78.2 5.25 C 76.79 5.52 75.42 5.88 74.12 6.33 L 71.12 3.22 C 70.79 2.88 70.28 2.78 69.85 2.97 C 67.63 3.94 65.49 5.18 63.47 6.65 C 63.09 6.93 62.92 7.42 63.05 7.88 L 64.25 12.04 C 63.18 12.97 62.2 13.95 61.27 15.02 L 57.09 13.82 C 56.63 13.69 56.14 13.85 55.86 14.24 C 54.44 16.19 53.2 18.33 52.18 20.6 C 51.99 21.04 52.09 21.55 52.43 21.88 L 55.54 24.91 C 55.07 26.31 54.71 27.65 54.46 28.99 L 50.27 30.03 C 49.8 30.15 49.46 30.54 49.41 31.02 C 49.28 32.35 49.21 33.51 49.21 34.67 C 49.21 35.84 49.28 37.04 49.41 38.35 C 49.46 38.82 49.8 39.22 50.27 39.33 L 54.46 40.38 C 54.72 41.73 55.09 43.1 55.56 44.45 L 52.43 47.45 C 52.09 47.79 51.99 48.3 52.18 48.74 C 53.21 51.03 54.45 53.17 55.86 55.1 C 56.14 55.49 56.64 55.66 57.09 55.52 L 61.27 54.33 C 62.2 55.39 63.18 56.38 64.25 57.3 L 63.05 61.49 C 62.92 61.94 63.09 62.43 63.47 62.71 C 65.36 64.11 67.5 65.35 69.82 66.39 C 70.25 66.59 70.77 66.49 71.1 66.15 L 74.12 63.02 C 75.42 63.47 76.79 63.83 78.2 64.09 L 79.24 68.31 C 79.36 68.77 79.75 69.11 80.23 69.16 C 81.53 69.3 82.74 69.36 83.91 69.36 C 85.07 69.36 86.28 69.3 87.58 69.16 C 88.06 69.11 88.45 68.77 88.57 68.31 L 89.62 64.09 C 91.02 63.83 92.39 63.47 93.69 63.02 L 96.71 66.15 C 97.05 66.49 97.56 66.59 98 66.39 C 100.31 65.35 102.45 64.11 104.34 62.71 C 104.72 62.43 104.89 61.94 104.76 61.49 L 103.56 57.3 C 104.63 56.38 105.61 55.39 106.54 54.33 L 110.72 55.52 C 111.18 55.65 111.67 55.49 111.95 55.1 C 113.36 53.17 114.6 51.03 115.63 48.74 C 115.82 48.3 115.72 47.78 115.38 47.45 L 112.25 44.45 C 112.72 43.1 113.09 41.73 113.35 40.38 L 117.54 39.33 C 118.01 39.22 118.35 38.82 118.4 38.35 C 118.53 37.04 118.6 35.84 118.6 34.67 C 118.6 33.51 118.54 32.35 118.4 31.02" />
    <path fill="#f6f6f6" fill-rule="evenodd" d="M 83.91 45.61 C 77.87 45.61 72.96 40.71 72.96 34.67 C 72.96 28.65 77.87 23.75 83.91 23.75 C 89.94 23.75 94.85 28.65 94.85 34.67 C 94.85 40.71 89.94 45.61 83.91 45.61 M 83.91 21.48 C 76.62 21.48 70.69 27.4 70.69 34.67 C 70.69 41.96 76.62 47.88 83.91 47.88 C 91.19 47.88 97.12 41.96 97.12 34.67 C 97.12 27.4 91.19 21.48 83.91 21.48" />
    <path fill="#f6f6f6" fill-rule="evenodd" d="M 83.91 55.84 C 72.23 55.84 62.73 46.34 62.73 34.66 C 62.73 23.01 72.23 13.53 83.91 13.53 C 95.58 13.53 105.08 23.01 105.08 34.66 C 105.08 46.34 95.58 55.84 83.91 55.84 M 83.91 11.26 C 70.98 11.26 60.46 21.76 60.46 34.66 C 60.46 47.59 70.98 58.11 83.91 58.11 C 96.83 58.11 107.35 47.59 107.35 34.66 C 107.35 21.76 96.83 11.26 83.91 11.26" />
</svg>