<?xml version="1.0" encoding="utf-8"?>
<!-- Generator: Adobe Illustrator 19.2.1, SVG Export Plug-In . SVG Version: 6.00 Build 0)  -->
<svg version="1.1" id="Слой_1" xmlns="http://www.w3.org/2000/svg" xmlns:xlink="http://www.w3.org/1999/xlink" x="0px" y="0px"
	 viewBox="0 0 16 13" style="enable-background:new 0 0 16 13;" xml:space="preserve">
<g>
	<path class="st0" d="M1.4,12.1c-0.3,0-0.5-0.2-0.5-0.5V1h6.4l1,2c0.1,0.2,0.2,0.2,0.4,0.2h6.2v8.4c0,0.3-0.2,0.5-0.5,0.5H1.4
		 M7.7,0H0.5C0.2,0,0,0.2,0,0.5v11.1C0,12.4,0.6,13,1.4,13h13.2c0.8,0,1.4-0.6,1.4-1.4V2.7c0-0.3-0.2-0.5-0.5-0.5H9.1l-1-2
		C8,0.1,7.8,0,7.7,0"/>
</g>
</svg>
