<?xml version="1.0" encoding="utf-8"?>
<!-- Generator: Avocode 2.6.0 - http://avocode.com -->
<svg height="87" width="87" xmlns:xlink="http://www.w3.org/1999/xlink" xmlns="http://www.w3.org/2000/svg" viewBox="0 0 87 87">
    <path fill-rule="evenodd" d="M 61.53 26.63 L 41.84 26.63 L 41.84 25.47 C 41.84 23.56 40.28 22 38.37 22 L 33.74 22 C 31.82 22 30.26 23.56 30.26 25.47 L 30.26 26.63 L 24.47 26.63 C 22.56 26.63 21 28.19 21 30.11 L 21 34.74 C 21 36.65 22.56 38.21 24.47 38.21 L 30.26 38.21 L 30.26 62.53 C 30.26 64.44 31.82 66 33.74 66 L 38.37 66 C 40.28 66 41.84 64.44 41.84 62.53 L 41.84 38.21 L 61.53 38.21 C 63.44 38.21 65 36.65 65 34.74 L 65 30.11 C 65 28.19 63.44 26.63 61.53 26.63 L 61.53 26.63 Z M 32.58 25.47 C 32.58 24.84 33.1 24.32 33.74 24.32 L 38.37 24.32 C 39.01 24.32 39.53 24.84 39.53 25.47 L 39.53 26.63 L 32.58 26.63 L 32.58 25.47 L 32.58 25.47 Z M 39.53 42.84 L 38.37 42.84 C 37.73 42.84 37.21 43.36 37.21 44 C 37.21 44.64 37.73 45.16 38.37 45.16 L 39.53 45.16 L 39.53 49.79 L 38.37 49.79 C 37.73 49.79 37.21 50.31 37.21 50.95 C 37.21 51.59 37.73 52.11 38.37 52.11 L 39.53 52.11 L 39.53 56.74 L 38.37 56.74 C 37.73 56.74 37.21 57.26 37.21 57.89 C 37.21 58.53 37.73 59.05 38.37 59.05 L 39.53 59.05 L 39.53 62.53 C 39.53 63.16 39.01 63.68 38.37 63.68 L 33.74 63.68 C 33.1 63.68 32.58 63.16 32.58 62.53 L 32.58 38.21 L 39.53 38.21 L 39.53 42.84 L 39.53 42.84 Z M 62.68 34.74 C 62.68 35.38 62.16 35.89 61.53 35.89 L 58.05 35.89 L 58.05 34.74 C 58.05 34.1 57.53 33.58 56.89 33.58 C 56.26 33.58 55.74 34.1 55.74 34.74 L 55.74 35.89 L 51.11 35.89 L 51.11 34.74 C 51.11 34.1 50.59 33.58 49.95 33.58 C 49.31 33.58 48.79 34.1 48.79 34.74 L 48.79 35.89 L 44.16 35.89 L 44.16 34.74 C 44.16 34.1 43.64 33.58 43 33.58 C 42.36 33.58 41.84 34.1 41.84 34.74 L 41.84 35.89 L 37.21 35.89 L 37.21 34.74 C 37.21 34.1 36.69 33.58 36.05 33.58 C 35.41 33.58 34.89 34.1 34.89 34.74 L 34.89 35.89 L 30.26 35.89 L 30.26 34.74 C 30.26 34.1 29.74 33.58 29.11 33.58 C 28.47 33.58 27.95 34.1 27.95 34.74 L 27.95 35.89 L 24.47 35.89 C 23.84 35.89 23.32 35.38 23.32 34.74 L 23.32 30.11 C 23.32 29.47 23.84 28.95 24.47 28.95 L 61.53 28.95 C 62.16 28.95 62.68 29.47 62.68 30.11 L 62.68 34.74 L 62.68 34.74 Z M 62.68 34.74" />
    <path stroke-linejoin="miter" stroke-linecap="butt" stroke-width="1" stroke="#ffffff" fill="none" fill-rule="evenodd" d="M 43.5 86 C 66.97 86 86 66.97 86 43.5 C 86 20.03 66.97 1 43.5 1 C 20.03 1 1 20.03 1 43.5 C 1 66.97 20.03 86 43.5 86 Z M 43.5 86" />
</svg>