<svg xmlns="http://www.w3.org/2000/svg" height="15" width="19" viewBox="0 0 19 15"><path fill-rule="evenodd" d="M18.79 1.77C18.11 2.08 17.38 2.28 16.62 2.37 17.4 1.9 18 1.16 18.28 0.28 17.55 0.71 16.74 1.03 15.88 1.2 15.19 0.46 14.2 0 13.11 0 11.02 0 9.33 1.7 9.33 3.79 9.33 4.08 9.36 4.37 9.42 4.65 6.28 4.49 3.49 2.98 1.62 0.69 1.29 1.25 1.1 1.9 1.1 2.6 1.1 3.91 1.77 5.07 2.79 5.75 2.17 5.73 1.59 5.56 1.07 5.27L1.07 5.32C1.07 7.16 2.38 8.69 4.11 9.04 3.8 9.12 3.46 9.17 3.11 9.17 2.87 9.17 2.63 9.15 2.4 9.1 2.88 10.61 4.28 11.7 5.94 11.73 4.64 12.75 3.01 13.35 1.24 13.35 0.93 13.35 0.63 13.33 0.33 13.3 2.01 14.37 4 15 6.14 15 13.1 15 16.91 9.23 16.91 4.22 16.91 4.06 16.91 3.9 16.9 3.73 17.64 3.2 18.28 2.53 18.79 1.77L18.79 1.77ZM18.79 1.77"/></svg>