<?xml version="1.0" encoding="utf-8"?>
<!-- Generator: Avocode 2.6.0 - http://avocode.com -->
<svg xmlns:xlink="http://www.w3.org/1999/xlink" xmlns="http://www.w3.org/2000/svg" viewBox="0 0 20 13">
    <path fill-opacity="0.3" fill-rule="evenodd" d="M 9.57 0 C 5.22 0 1.51 2.7 0 6.5 C 1.51 10.3 5.22 13 9.57 13 C 13.92 13 17.63 10.3 19.14 6.5 C 17.63 2.7 13.92 0 9.57 0 L 9.57 0 Z M 9.57 10.83 C 7.17 10.83 5.22 8.89 5.22 6.5 C 5.22 4.11 7.17 2.17 9.57 2.17 C 11.97 2.17 13.92 4.11 13.92 6.5 C 13.92 8.89 11.97 10.83 9.57 10.83 L 9.57 10.83 Z M 9.57 3.9 C 8.13 3.9 6.96 5.07 6.96 6.5 C 6.96 7.93 8.13 9.1 9.57 9.1 C 11.01 9.1 12.18 7.93 12.18 6.5 C 12.18 5.07 11.01 3.9 9.57 3.9 L 9.57 3.9 Z M 9.57 3.9" />
</svg>