<?xml version="1.0" encoding="utf-8"?>
<!-- Generator: Avocode 2.6.0 - http://avocode.com -->
<svg height="10" width="10" xmlns:xlink="http://www.w3.org/1999/xlink" xmlns="http://www.w3.org/2000/svg" viewBox="0 0 10 10">
    <path  fill-rule="evenodd" d="M 7.27 0 C 7.63 0 7.98 0.07 8.31 0.2 C 8.64 0.34 8.94 0.54 9.2 0.8 C 9.46 1.06 9.66 1.36 9.8 1.69 C 9.93 2.02 10 2.37 10 2.73 C 10 3.08 9.93 3.43 9.8 3.76 C 9.66 4.1 9.46 4.4 9.2 4.66 L 7.84 6.02 C 7.81 6.05 7.77 6.08 7.72 6.13 C 7.47 6.35 7.18 6.53 6.87 6.64 C 6.56 6.76 6.24 6.82 5.91 6.82 C 5.49 6.82 5.1 6.73 4.73 6.55 C 4.46 6.42 4.21 6.24 3.98 6.02 C 3.76 5.79 3.58 5.54 3.45 5.27 C 3.63 5.09 3.84 5 4.09 5 C 4.18 5 4.27 5.01 4.36 5.04 C 4.51 5.29 4.71 5.49 4.96 5.64 C 5.25 5.82 5.57 5.91 5.91 5.91 C 6.15 5.91 6.38 5.86 6.6 5.77 C 6.82 5.68 7.02 5.55 7.19 5.38 L 8.56 4.01 C 8.73 3.84 8.87 3.64 8.96 3.42 C 9.05 3.19 9.09 2.96 9.09 2.73 C 9.09 2.49 9.05 2.26 8.96 2.04 C 8.87 1.82 8.73 1.62 8.56 1.44 C 8.38 1.27 8.18 1.13 7.96 1.04 C 7.74 0.95 7.51 0.91 7.27 0.91 C 7.04 0.91 6.81 0.95 6.58 1.04 C 6.36 1.13 6.16 1.27 5.99 1.44 L 5.03 2.4 C 4.73 2.31 4.42 2.27 4.09 2.27 C 4.04 2.27 3.97 2.28 3.87 2.28 C 3.92 2.23 3.95 2.19 3.98 2.16 L 5.34 0.8 C 5.6 0.54 5.9 0.34 6.24 0.2 C 6.57 0.07 6.92 0 7.27 0 L 7.27 0 Z M 4.09 3.18 C 4.51 3.18 4.9 3.27 5.27 3.45 C 5.54 3.58 5.79 3.76 6.02 3.98 C 6.24 4.21 6.42 4.46 6.55 4.73 C 6.37 4.91 6.16 5 5.91 5 C 5.82 5 5.73 4.99 5.64 4.96 C 5.49 4.71 5.29 4.51 5.04 4.36 C 4.75 4.18 4.43 4.09 4.09 4.09 C 3.85 4.09 3.62 4.14 3.4 4.23 C 3.18 4.32 2.98 4.45 2.81 4.62 L 1.44 5.99 C 1.27 6.16 1.13 6.36 1.04 6.58 C 0.95 6.81 0.91 7.04 0.91 7.27 C 0.91 7.51 0.95 7.74 1.04 7.96 C 1.13 8.18 1.27 8.38 1.44 8.56 C 1.62 8.73 1.82 8.87 2.04 8.96 C 2.26 9.05 2.49 9.09 2.73 9.09 C 2.96 9.09 3.19 9.05 3.42 8.96 C 3.64 8.87 3.84 8.73 4.01 8.56 L 4.97 7.6 C 5.27 7.69 5.58 7.73 5.91 7.73 C 5.96 7.73 6.03 7.72 6.13 7.72 C 6.08 7.77 6.05 7.81 6.02 7.84 L 4.66 9.2 C 4.39 9.46 4.1 9.66 3.76 9.8 C 3.43 9.93 3.08 10 2.73 10 C 2.37 10 2.03 9.93 1.69 9.8 C 1.36 9.66 1.06 9.46 0.8 9.2 C 0.54 8.94 0.34 8.64 0.2 8.31 C 0.07 7.98 0 7.63 0 7.27 C 0 6.92 0.07 6.57 0.2 6.24 C 0.34 5.9 0.54 5.61 0.8 5.34 L 2.16 3.98 C 2.19 3.95 2.23 3.92 2.28 3.87 C 2.53 3.65 2.82 3.47 3.13 3.36 C 3.44 3.24 3.76 3.18 4.09 3.18 L 4.09 3.18 Z M 4.09 3.18" />
</svg>